<?xml version="1.0" standalone="no"?>
<!DOCTYPE svg PUBLIC "-//W3C//DTD SVG 20010904//EN"
 "http://www.w3.org/TR/2001/REC-SVG-20010904/DTD/svg10.dtd">
<svg version="1.0" xmlns="http://www.w3.org/2000/svg"
 width="500.000000pt" height="500.000000pt" viewBox="0 0 500.000000 500.000000"
 preserveAspectRatio="xMidYMid meet">

<g transform="translate(0.000000,500.000000) scale(0.100000,-0.100000)"
fill="#000000" stroke="none">
<path d="M2220 4654 c-52 -8 -103 -15 -112 -15 -22 0 -32 -15 -21 -31 13 -22
14 -50 1 -46 -7 3 -13 9 -13 14 -1 5 -4 19 -8 30 -7 19 -12 21 -45 13 -20 -4
-38 -13 -40 -18 -2 -6 -16 -8 -33 -4 -24 5 -29 2 -29 -15 0 -11 7 -23 16 -26
8 -3 13 -10 9 -15 -3 -5 -1 -12 5 -16 5 -3 10 1 10 9 0 8 5 18 10 21 16 10 11
-22 -6 -40 -13 -12 -19 -13 -30 -4 -12 9 -12 15 -2 27 9 11 9 14 1 9 -6 -4
-15 -2 -18 4 -4 5 -13 8 -21 5 -8 -3 -17 1 -20 8 -5 13 -12 13 -51 1 -26 -8
-49 -19 -53 -26 -4 -6 -12 -9 -18 -5 -6 3 -13 2 -17 -4 -3 -5 2 -10 12 -11 15
0 15 -2 -4 -11 -18 -8 -20 -16 -16 -44 4 -22 2 -34 -6 -34 -7 0 -9 9 -5 27 6
22 4 25 -10 20 -17 -7 -23 8 -6 18 19 12 10 26 -12 20 -46 -14 -198 -88 -198
-96 0 -5 -3 -8 -7 -7 -10 3 -76 -32 -84 -44 -3 -5 -8 -8 -11 -6 -6 5 -168
-103 -168 -113 0 -4 -15 -15 -34 -24 -44 -21 -216 -174 -292 -260 -57 -65 -78
-95 -55 -81 6 4 11 2 11 -3 0 -6 -9 -11 -20 -11 -22 0 -98 -92 -80 -98 7 -3 1
-9 -11 -16 -22 -11 -31 -23 -58 -86 -7 -14 -9 -16 -6 -5 4 13 3 16 -3 10 -13
-13 -112 -187 -112 -196 0 -3 24 -10 52 -15 l53 -9 43 74 c32 53 41 76 33 84
-8 8 -11 8 -11 -1 0 -7 -9 -12 -20 -12 -11 0 -20 5 -20 10 0 6 9 11 20 11 11
1 25 3 30 4 6 1 14 3 19 4 4 0 35 37 67 81 32 45 71 95 87 112 15 17 27 38 27
45 0 7 6 13 14 13 19 0 77 70 69 83 -3 6 -1 7 5 3 6 -4 50 29 99 74 112 102
314 239 465 313 110 54 421 166 470 170 13 1 31 11 40 22 16 19 17 19 18 2 0
-15 6 -17 28 -13 15 3 63 10 107 16 43 6 83 16 87 23 6 9 8 9 8 0 0 -9 21 -13
70 -13 54 0 70 3 70 14 0 8 4 17 9 20 5 4 7 -3 4 -14 -5 -19 0 -20 93 -20 68
0 94 3 84 10 -12 8 -9 10 13 10 28 0 37 -14 15 -23 -7 -3 1 -6 18 -6 26 -1 33
3 36 24 3 13 1 22 -3 19 -15 -9 -10 17 7 33 8 9 12 19 7 24 -4 4 -54 11 -110
15 l-102 7 1 -31 c1 -20 7 -33 17 -35 10 -3 8 -5 -6 -6 -22 -1 -26 6 -26 52 0
15 -11 17 -116 16 -64 -1 -159 -8 -211 -15z m124 -47 c7 -6 6 -7 -4 -4 -8 2
-16 12 -17 23 -2 13 -1 15 4 4 3 -8 11 -19 17 -23z m311 -25 c-8 -9 -35 20
-28 31 4 6 11 3 19 -8 8 -10 12 -21 9 -23z m-538 6 c-3 -8 -6 -5 -6 6 -1 11 2
17 5 13 3 -3 4 -12 1 -19z m-597 -188 c0 -5 -5 -10 -11 -10 -5 0 -7 5 -4 10 3
6 8 10 11 10 2 0 4 -4 4 -10z m-260 -175 l25 -15 -27 6 c-18 4 -28 2 -28 -6 0
-6 -4 -9 -10 -5 -10 6 -3 35 9 35 3 -1 17 -7 31 -15z m-340 -345 c0 -5 -4 -10
-10 -10 -5 0 -10 5 -10 10 0 6 5 10 10 10 6 0 10 -4 10 -10z m-129 -152 c11
-21 11 -22 -4 -9 -10 7 -17 17 -17 22 0 15 9 10 21 -13z"/>
<path d="M2805 4640 c-12 -5 -14 -9 -6 -9 12 -1 12 -4 -1 -18 -8 -10 -18 -26
-21 -35 -6 -17 6 -22 39 -17 4 0 10 -5 14 -11 4 -6 56 -22 116 -35 148 -32
327 -94 456 -158 l107 -52 0 61 -1 61 -58 28 -58 28 -29 -20 c-46 -32 -53 -35
-53 -21 0 7 10 18 22 23 12 6 23 15 25 21 4 12 -166 81 -213 86 -16 2 -32 7
-36 12 -4 6 -13 4 -22 -3 -13 -11 -17 -11 -22 3 -7 17 -78 41 -94 31 -6 -3
-10 -2 -10 3 0 5 -20 12 -45 15 -25 4 -55 9 -67 11 -13 3 -32 1 -43 -4z m96
-63 c-10 -9 -11 -8 -5 6 3 10 9 15 12 12 3 -3 0 -11 -7 -18z m568 -203 c4 3 8
-7 9 -22 l1 -27 -14 25 c-8 14 -14 30 -14 35 0 6 3 4 6 -3 2 -6 8 -10 12 -8z"/>
<path d="M2250 4519 c-88 -11 -110 -17 -110 -30 0 -8 13 -9 38 -5 20 3 68 9
105 12 42 5 66 11 64 18 -5 15 -19 15 -97 5z"/>
<path d="M2360 4518 c0 -10 19 -12 80 -10 44 2 80 7 80 11 0 4 -36 8 -80 10
-60 1 -80 -1 -80 -11z"/>
<path d="M2540 4521 c0 -4 31 -12 70 -15 72 -7 104 -1 79 15 -18 11 -149 12
-149 0z"/>
<path d="M2731 4511 c-17 -11 -17 -11 126 -35 51 -9 147 -32 213 -51 67 -19
128 -35 136 -35 8 0 14 -4 14 -10 0 -5 6 -10 13 -10 6 0 59 -23 116 -50 70
-34 108 -47 115 -40 6 6 -22 24 -85 54 -173 82 -347 137 -543 172 -95 16 -87
16 -105 5z"/>
<path d="M2035 4480 c-16 -5 -57 -15 -90 -24 -123 -30 -248 -86 -194 -86 10 0
165 50 209 67 8 3 24 8 35 10 11 2 22 8 23 13 2 6 8 7 14 4 14 -9 79 6 73 17
-7 11 -28 10 -70 -1z"/>
<path d="M3527 4403 c-13 -13 -7 -33 11 -34 10 0 12 -3 5 -6 -7 -2 -13 -20
-13 -40 l0 -34 30 21 c17 12 30 17 30 12 0 -5 -10 -16 -22 -24 -21 -14 -19
-16 66 -73 94 -61 215 -155 261 -201 l29 -29 11 28 c6 15 15 24 20 20 4 -5 5
-3 1 4 -4 7 -1 22 6 33 11 17 11 22 -2 30 -8 5 -20 8 -27 5 -7 -2 -10 2 -7 10
9 22 -306 258 -322 242 -3 -3 -16 6 -29 19 -25 25 -37 29 -48 17z m103 -67 c0
-2 -7 -6 -15 -10 -8 -3 -15 -1 -15 4 0 6 7 10 15 10 8 0 15 -2 15 -4z m20 -60
c0 -3 -4 -8 -10 -11 -5 -3 -10 -1 -10 4 0 6 5 11 10 11 6 0 10 -2 10 -4z m116
-83 c-10 -10 -19 5 -10 18 6 11 8 11 12 0 2 -7 1 -15 -2 -18z"/>
<path d="M2574 4389 c-42 -12 -90 -68 -105 -121 -21 -80 8 -188 51 -188 10 0
20 -5 22 -11 3 -10 64 -29 101 -32 9 -1 17 -5 17 -9 0 -8 72 -30 78 -23 9 8
-81 43 -97 38 -12 -3 -12 -2 2 7 9 6 17 21 17 33 l0 21 -16 -22 c-19 -27 -58
-29 -77 -2 -8 11 -17 17 -22 12 -4 -4 -5 2 -2 13 l7 20 -16 -20 -17 -20 8 20
c5 11 12 61 15 110 4 50 12 101 18 115 13 34 48 64 67 57 8 -4 15 -2 15 3 0
12 -24 11 -66 -1z"/>
<path d="M1600 4322 c-132 -66 -281 -161 -390 -249 -100 -81 -261 -248 -338
-352 -62 -84 -73 -107 -49 -98 6 2 11 12 11 21 -1 9 4 16 10 16 12 0 141 154
161 192 5 10 12 18 15 18 3 0 37 30 76 68 78 75 203 177 270 219 24 15 44 34
44 41 0 7 4 11 10 7 5 -3 26 5 47 18 49 31 211 113 241 122 20 6 32 35 14 35
-4 0 -59 -26 -122 -58z"/>
<path d="M2160 4364 c-25 -7 -38 -13 -29 -13 14 -1 38 -73 44 -131 0 -9 3 -20
6 -25 4 -6 12 -39 19 -75 7 -36 17 -72 22 -80 6 -11 7 -8 3 8 -4 13 -2 22 4
22 6 0 11 5 11 11 0 5 -4 7 -10 4 -6 -4 -10 5 -10 19 0 17 6 26 16 26 12 0 15
-9 13 -42 -4 -44 7 -53 46 -37 17 6 17 8 3 8 -10 1 -18 6 -18 12 0 5 -4 7 -10
4 -5 -3 -7 0 -4 9 3 8 -6 74 -21 147 -22 108 -24 133 -13 140 19 13 -17 9 -72
-7z m50 -39 c0 -8 -4 -15 -10 -15 -5 0 -7 7 -4 15 4 8 8 15 10 15 2 0 4 -7 4
-15z"/>
<path d="M2664 4366 c-3 -7 1 -29 8 -47 16 -39 15 -166 0 -181 -6 -6 -9 -17
-6 -24 14 -48 13 -47 31 -33 46 39 72 183 43 240 -28 54 -64 76 -76 45z"/>
<path d="M2885 4320 c0 -21 -2 -37 -6 -34 -12 7 -49 -127 -49 -179 0 -43 5
-58 23 -75 13 -12 28 -22 33 -22 5 0 10 26 10 58 0 66 57 262 77 263 12 1 -14
10 -63 22 -24 6 -25 4 -25 -33z"/>
<path d="M2030 4331 c0 -4 -11 -6 -25 -3 -24 4 -25 3 -24 -54 1 -73 30 -180
48 -176 7 1 10 -2 6 -8 -3 -6 -10 -8 -15 -5 -5 3 -4 -11 1 -31 6 -20 8 -42 5
-50 -5 -12 1 -14 32 -8 44 8 77 23 51 24 -12 0 -19 16 -28 57 -17 88 -17 91
37 107 l47 15 -52 -6 -52 -5 -11 43 c-7 23 -10 58 -8 76 2 18 0 33 -4 33 -4 0
-8 -4 -8 -9z"/>
<path d="M1930 4316 c0 -2 9 -6 20 -9 11 -3 20 -1 20 4 0 5 -9 9 -20 9 -11 0
-20 -2 -20 -4z"/>
<path d="M3048 4308 c5 -5 16 -8 23 -6 8 3 3 7 -10 11 -17 4 -21 3 -13 -5z"/>
<path d="M3090 4291 c0 -5 -6 -16 -14 -24 -15 -14 -60 -160 -58 -189 0 -9 -6
-22 -14 -29 -8 -6 -14 -17 -14 -24 0 -8 -12 -18 -27 -23 l-28 -10 30 -1 c44
-1 94 33 102 69 3 17 9 30 14 30 4 0 17 43 30 95 12 52 27 95 33 96 13 1 -24
17 -41 18 -7 1 -13 -3 -13 -8z"/>
<path d="M3476 4271 c-8 -12 11 -24 24 -16 6 3 10 -1 10 -9 0 -9 4 -16 9 -16
4 0 52 -29 105 -64 53 -36 96 -64 96 -62 0 1 26 -22 58 -51 31 -30 63 -51 71
-48 8 3 11 0 8 -7 -5 -15 39 -52 47 -40 6 10 -52 67 -129 128 -128 103 -289
202 -299 185z"/>
<path d="M1760 4250 c-12 -8 -11 -10 6 -10 11 0 29 -9 39 -20 27 -30 38 -24
20 10 -16 31 -38 37 -65 20z"/>
<path d="M1699 4213 c-55 -46 -71 -113 -48 -196 8 -32 14 -38 30 -34 11 3 33
2 49 -3 l29 -8 -25 47 c-36 70 -42 141 -16 185 26 43 23 44 -19 9z"/>
<path d="M3198 4077 c-115 -119 -128 -135 -108 -122 6 3 10 0 10 -6 0 -7 18 7
41 31 l40 43 45 -21 c54 -27 57 -22 7 9 -21 12 -40 24 -42 25 -2 2 23 32 55
68 31 36 59 64 61 63 1 -2 -8 -69 -22 -148 -13 -79 -25 -145 -25 -146 0 -1 -8
0 -17 4 -31 11 -10 -4 47 -32 32 -16 49 -21 42 -13 -10 13 -9 28 3 79 19 82
19 103 1 96 -8 -3 -17 0 -19 8 -7 16 1 25 24 25 18 0 23 10 34 70 4 19 8 42
11 51 4 15 -32 39 -59 39 -7 0 -65 -56 -129 -123z"/>
<path d="M1486 4101 c-3 -5 1 -14 8 -20 12 -10 13 -8 9 8 -6 23 -9 25 -17 12z"/>
<path d="M1860 4079 c-30 -17 -48 -28 -39 -25 12 3 24 -10 43 -44 14 -26 26
-56 26 -65 0 -16 2 -16 22 -3 29 19 30 41 7 95 -15 35 -17 49 -8 59 15 19 13
18 -51 -17z"/>
<path d="M3983 4084 c3 -6 -3 -27 -13 -47 -11 -20 -20 -43 -20 -49 1 -7 28
-42 61 -78 33 -36 85 -98 116 -138 42 -54 59 -70 66 -60 6 9 7 8 3 -5 -4 -11
3 -31 15 -48 20 -28 24 -30 75 -25 63 6 65 -10 3 -20 -42 -7 -52 -23 -19 -31
11 -3 20 -14 20 -24 0 -23 21 -70 29 -65 3 2 12 -2 19 -10 7 -8 8 -14 2 -14
-5 0 -10 -5 -10 -11 0 -6 8 -8 18 -5 19 6 61 -28 49 -40 -3 -4 3 -14 15 -24
12 -9 18 -22 14 -28 -13 -21 -25 -13 -50 36 -14 26 -25 42 -26 35 0 -16 32
-83 40 -83 4 0 7 -6 7 -13 0 -6 11 -41 26 -77 40 -102 93 -286 112 -392 l17
-98 37 -6 c20 -3 45 -8 55 -11 17 -5 18 -1 12 48 -12 96 -46 244 -56 247 -6 2
-10 18 -10 35 0 38 -48 187 -60 187 -5 0 -10 -5 -12 -12 -2 -6 -11 -12 -20
-14 -11 -1 -15 3 -11 12 3 8 8 14 12 14 3 0 12 4 19 9 11 7 8 19 -14 62 -15
30 -29 59 -30 64 -6 30 -27 68 -31 58 -3 -7 -9 -13 -15 -13 -7 0 -6 5 1 14 9
11 7 24 -11 60 -22 47 -43 57 -67 34 -11 -11 -12 -10 -6 2 21 35 14 69 -25
129 l-40 61 -35 -14 c-43 -18 -46 -12 -5 9 l31 16 -32 44 c-18 24 -36 42 -42
38 -6 -3 -7 -1 -4 4 7 11 -93 132 -168 203 -26 25 -45 40 -42 34z m507 -769
c0 -2 -9 -9 -20 -15 -15 -8 -20 -8 -20 3 0 7 9 13 20 14 11 1 20 0 20 -2z m91
-345 c5 0 9 -11 9 -25 0 -14 -4 -25 -10 -25 -5 0 -10 9 -10 19 0 11 -5 21 -11
23 -6 2 -7 11 -2 23 7 18 8 18 11 3 2 -10 8 -18 13 -18z m9 -115 c0 -8 -4 -15
-10 -15 -5 0 -10 7 -10 15 0 8 5 15 10 15 6 0 10 -7 10 -15z"/>
<path d="M1430 4064 c-18 -9 -20 -13 -8 -14 9 0 29 -20 45 -45 15 -25 31 -45
34 -45 4 0 12 13 19 29 13 32 5 73 -13 69 -7 -1 -21 3 -32 9 -16 9 -26 8 -45
-3z"/>
<path d="M3558 4067 c8 -9 -3 -31 -45 -85 -56 -75 -62 -93 -23 -72 18 10 21 9
18 -2 -3 -7 -17 -13 -32 -13 -21 1 -35 -10 -63 -47 -20 -28 -40 -45 -46 -42
-22 13 7 -13 84 -74 74 -59 99 -66 105 -29 1 10 -5 12 -22 9 -16 -3 -39 5 -65
22 l-40 27 50 63 c28 35 48 66 44 70 -10 9 38 56 50 49 6 -4 8 2 5 15 -4 13
-2 19 6 16 7 -3 20 4 30 15 10 11 25 17 34 14 10 -3 -7 13 -37 36 -56 42 -71
50 -53 28z"/>
<path d="M1525 3977 c-15 -36 -14 -38 11 -77 15 -22 33 -40 40 -40 7 0 21 -14
29 -31 15 -29 15 -32 -2 -45 -32 -24 -4 -15 38 13 23 15 36 29 31 31 -6 2 -21
19 -32 38 -12 19 -25 32 -30 29 -8 -5 -26 33 -22 48 1 4 -2 7 -8 7 -5 0 -10 6
-10 13 0 6 -7 21 -15 31 -14 18 -15 18 -30 -17z"/>
<path d="M1316 3988 c-6 -18 -4 -48 3 -48 3 0 7 -15 8 -33 l2 -32 -22 43 -23
43 -24 -26 -25 -26 28 10 c23 9 27 8 27 -8 0 -22 33 -54 45 -44 4 5 5 3 2 -3
-4 -7 0 -17 8 -24 10 -9 15 -9 15 -1 0 17 47 13 54 -5 9 -25 -4 -32 -19 -11
-9 13 -15 15 -20 7 -14 -22 17 -39 55 -31 27 6 31 10 18 16 -10 4 -16 11 -13
15 5 7 -51 77 -101 128 -7 7 -11 19 -8 27 4 8 3 15 0 15 -4 0 -8 -6 -10 -12z"/>
<path d="M1725 3950 c3 -5 8 -10 11 -10 2 0 4 5 4 10 0 6 -5 10 -11 10 -5 0
-7 -4 -4 -10z"/>
<path d="M2313 3938 c-35 -5 -63 -14 -63 -20 0 -6 8 -7 18 -3 9 4 55 9 102 12
47 3 89 9 95 14 12 11 -69 10 -152 -3z"/>
<path d="M2480 3940 c0 -6 32 -10 75 -10 43 0 75 4 75 10 0 6 -32 10 -75 10
-43 0 -75 -4 -75 -10z"/>
<path d="M1709 3926 c14 -17 51 -28 51 -15 0 5 -12 14 -26 19 -34 13 -39 13
-25 -4z"/>
<path d="M2650 3930 c8 -5 35 -9 60 -9 37 1 41 2 20 9 -38 12 -99 12 -80 0z"/>
<path d="M3920 3933 c0 -5 19 -28 43 -53 23 -25 62 -70 87 -100 25 -30 47 -57
50 -60 3 -3 16 -22 30 -42 25 -38 35 -45 44 -30 6 11 -92 139 -171 223 -60 64
-83 81 -83 62z"/>
<path d="M1833 3919 c11 -7 23 -7 35 0 14 9 11 10 -18 10 -29 0 -32 -1 -17
-10z"/>
<path d="M2193 3918 c-24 -5 -43 -14 -43 -19 0 -6 8 -8 18 -5 9 3 29 8 45 12
15 3 27 10 27 15 0 5 -1 9 -2 8 -2 -1 -22 -5 -45 -11z"/>
<path d="M2785 3911 c11 -5 61 -21 111 -35 49 -13 134 -43 188 -66 53 -23 100
-40 103 -37 15 16 -292 131 -379 142 -31 4 -38 3 -23 -4z"/>
<path d="M1778 3903 c7 -3 16 -2 19 1 4 3 -2 6 -13 5 -11 0 -14 -3 -6 -6z"/>
<path d="M2338 3900 c-15 -4 -29 -6 -32 -3 -10 10 -46 -9 -45 -25 0 -11 3 -12
6 -4 8 20 26 14 20 -8 -5 -18 -2 -19 36 -14 49 8 61 14 27 14 -29 0 -16 15 21
24 18 4 31 1 39 -9 14 -17 60 -21 60 -5 0 6 -8 10 -17 11 -11 0 -13 3 -5 6 48
19 -49 31 -110 13z"/>
<path d="M2482 3901 c-11 -6 -10 -10 4 -15 16 -6 16 -8 4 -16 -10 -7 3 -10 43
-10 32 0 56 4 53 9 -3 5 3 11 14 14 11 3 20 10 20 16 0 13 -118 15 -138 2z
m78 -20 c0 -6 -9 -9 -20 -8 -11 1 -20 5 -20 9 0 4 9 8 20 8 11 0 20 -4 20 -9z"/>
<path d="M2062 3883 c-24 -8 -41 -17 -38 -20 7 -7 97 17 111 28 14 14 -25 9
-73 -8z"/>
<path d="M2630 3880 c-13 -24 -17 -23 110 -45 108 -18 271 -70 357 -113 62
-31 83 -32 83 -1 0 35 -215 123 -387 158 -127 26 -149 26 -163 1z"/>
<path d="M2133 3863 c-39 -11 -53 -20 -53 -34 0 -29 14 -30 100 -10 85 21 109
31 71 31 -12 0 -24 7 -27 15 -7 18 -24 18 -91 -2z"/>
<path d="M3804 3853 c4 -10 4 -14 0 -10 -4 4 -53 -38 -108 -94 -56 -55 -107
-103 -114 -107 -8 -6 -1 -18 25 -43 20 -19 33 -29 30 -23 -3 6 14 30 38 54 25
24 45 50 45 57 0 7 6 13 13 13 7 0 34 23 61 50 27 28 58 50 69 50 19 0 17 4
-13 35 -37 38 -56 45 -46 18z m-24 -94 c0 -5 -4 -9 -10 -9 -5 0 -10 7 -10 16
0 8 5 12 10 9 6 -3 10 -10 10 -16z"/>
<path d="M1950 3841 c-38 -12 -93 -42 -86 -48 3 -3 33 8 68 25 62 30 68 38 18
23z"/>
<path d="M1121 3806 c-21 -22 -21 -24 -4 -20 11 3 26 -3 37 -15 10 -11 25 -17
34 -14 15 4 15 3 2 -6 -9 -7 -11 -14 -5 -19 6 -4 43 -42 84 -85 54 -56 71 -82
66 -95 -3 -9 12 1 34 23 39 38 51 52 32 41 -5 -3 -32 19 -61 50 -46 48 -50 57
-38 72 7 9 19 21 26 25 6 4 12 12 12 18 0 6 -15 -2 -34 -16 l-34 -26 -38 46
c-45 53 -78 59 -113 21z"/>
<path d="M1970 3805 c-25 -13 -49 -21 -54 -17 -5 3 -6 0 -2 -7 4 -6 0 -14 -8
-17 -9 -3 -16 -16 -16 -27 0 -21 0 -21 -16 1 l-16 23 -36 -22 c-119 -71 -162
-103 -152 -113 13 -13 13 -36 -1 -36 -5 0 -8 4 -4 9 11 18 -16 22 -41 6 -19
-12 -23 -21 -18 -38 6 -20 5 -21 -7 -4 -13 16 -22 10 -103 -72 -50 -50 -87
-94 -83 -98 4 -3 13 -1 19 5 24 24 29 11 8 -18 -18 -26 -24 -29 -37 -18 -12
10 -18 9 -29 -7 -13 -18 -12 -20 12 -27 22 -6 31 -1 57 30 46 55 196 202 207
202 5 0 18 12 29 26 12 15 21 24 21 21 0 -3 38 18 84 47 69 44 158 86 279 134
16 6 14 10 -15 24 -32 15 -36 15 -78 -7z"/>
<path d="M1467 3793 c-4 -6 -18 -8 -32 -5 -34 6 -32 -10 9 -55 18 -21 31 -45
28 -53 -2 -8 14 3 37 25 45 43 48 47 27 39 -8 -3 -24 8 -38 27 -14 17 -28 27
-31 22z"/>
<path d="M1805 3774 c-60 -32 -155 -97 -155 -106 0 -6 15 0 33 11 17 12 62 40
100 62 37 22 67 42 67 44 0 8 -14 5 -45 -11z"/>
<path d="M3205 3750 c3 -5 8 -10 11 -10 2 0 4 5 4 10 0 6 -5 10 -11 10 -5 0
-7 -4 -4 -10z"/>
<path d="M3900 3724 l-34 -25 39 6 c34 6 43 3 62 -17 l23 -24 -109 -84 c-64
-49 -107 -89 -104 -96 6 -16 -36 -15 -56 0 -12 9 -12 8 -3 -9 20 -35 62 -80
62 -68 0 7 34 38 75 68 41 31 75 59 75 63 0 5 19 17 42 27 24 10 37 20 30 23
-13 4 -17 23 -4 21 41 -7 40 3 -9 71 -28 39 -52 70 -53 69 0 0 -17 -12 -36
-25z m72 -126 c-11 -11 -32 -3 -32 12 0 4 9 6 21 3 13 -4 17 -9 11 -15z m-52
-13 c-7 -9 -15 -13 -17 -11 -7 7 7 26 19 26 6 0 6 -6 -2 -15z"/>
<path d="M3306 3686 c128 -89 243 -196 336 -316 15 -19 30 -32 33 -28 10 10
-112 154 -191 225 -83 75 -220 173 -243 173 -8 0 21 -24 65 -54z"/>
<path d="M2701 3713 c-15 -29 -14 -33 7 -27 9 3 6 -1 -7 -9 -14 -9 -19 -16
-12 -18 7 -3 -7 -14 -30 -26 -25 -13 -48 -18 -54 -14 -5 5 -30 12 -55 16 l-45
7 24 -26 c13 -14 28 -23 32 -20 5 3 9 0 9 -5 0 -6 16 -28 35 -50 38 -41 48
-66 15 -36 -11 10 -22 16 -24 14 -11 -13 -47 -92 -43 -96 7 -6 90 37 99 51 5
7 28 -9 63 -44 l56 -55 -7 71 -7 71 32 12 c17 8 31 17 31 21 0 4 15 11 33 15
30 7 27 9 -40 22 -46 10 -73 20 -73 29 0 7 -7 20 -16 29 -12 12 -13 19 -5 29
7 9 8 22 3 37 l-9 23 -12 -21z"/>
<path d="M3186 3704 c-4 -15 -6 -27 -4 -28 2 -1 43 -28 93 -61 79 -53 295
-250 295 -269 0 -4 19 -31 41 -62 33 -43 44 -52 55 -43 11 9 18 8 31 -2 15
-12 15 -10 -1 16 -48 75 -120 164 -129 158 -6 -3 -7 -1 -4 4 13 21 -259 264
-285 255 -5 -1 -8 2 -8 6 0 5 -18 18 -39 30 l-39 22 -6 -26z"/>
<path d="M2270 3648 c0 -54 -10 -66 -57 -73 l-46 -7 43 -25 c42 -25 42 -26 36
-71 l-6 -46 35 34 35 34 35 -17 c39 -19 45 -10 23 38 -10 23 -8 29 20 58 l31
32 -45 -3 c-37 -3 -47 0 -64 19 -11 13 -19 30 -20 37 0 22 -20 13 -20 -10z"/>
<path d="M1609 3642 c-8 -11 -16 -19 -19 -18 -21 4 -260 -240 -260 -266 0 -4
68 61 150 144 83 83 149 153 146 155 -2 2 -10 -4 -17 -15z"/>
<path d="M758 3553 c-57 -93 -61 -103 -44 -103 8 0 29 26 46 58 18 31 40 67
48 80 13 19 13 22 0 22 -9 0 -31 -26 -50 -57z"/>
<path d="M4196 3602 c-3 -5 1 -12 9 -16 8 -3 15 -15 15 -26 0 -11 5 -20 11
-20 5 0 8 -4 5 -8 -3 -5 10 -33 28 -64 19 -30 37 -65 41 -77 3 -11 11 -21 17
-21 6 0 9 -3 5 -6 -8 -8 13 -64 24 -64 5 0 9 -9 9 -20 0 -11 5 -20 11 -20 5 0
8 -4 5 -9 -3 -5 10 -51 28 -102 19 -52 42 -130 52 -174 10 -44 23 -87 31 -95
11 -13 13 -13 13 0 0 21 -46 208 -60 245 -6 17 -11 30 -10 30 4 0 -46 120 -82
197 -23 48 -45 85 -49 82 -5 -3 -11 8 -14 23 -12 58 -77 164 -89 145z"/>
<path d="M4050 3587 c0 -5 5 -17 10 -28 9 -15 6 -26 -12 -52 l-23 -32 32 23
c44 31 45 34 18 68 -13 16 -24 25 -25 21z"/>
<path d="M3072 3503 c-32 -26 -33 -26 -69 -9 -19 9 -37 15 -39 13 -6 -6 7 -37
15 -37 18 0 2 -43 -27 -73 l-31 -32 46 4 c36 2 48 0 56 -15 10 -17 11 -17 19
1 7 17 8 16 4 -5 -5 -28 7 -69 16 -54 3 5 8 26 12 46 5 29 12 37 31 40 21 3
22 5 10 22 -13 17 -15 17 -31 2 -19 -19 -29 -14 -20 9 3 9 10 13 16 10 6 -3
13 2 17 11 4 10 2 19 -4 21 -8 3 -7 15 3 39 8 19 13 34 12 34 -2 -1 -18 -13
-36 -27z"/>
<path d="M1941 3489 c2 -25 -3 -42 -16 -55 -10 -10 -20 -18 -22 -16 -2 2 -9 2
-16 -1 -6 -2 3 -6 21 -9 17 -2 32 -1 32 4 0 5 5 6 10 3 6 -3 10 -15 10 -25 0
-26 21 -36 35 -17 8 11 26 17 50 17 l39 0 -26 28 c-25 25 -26 29 -12 55 16 29
9 33 -31 15 -22 -10 -29 -8 -51 13 l-26 24 3 -36z"/>
<path d="M349 3447 c-28 -15 -44 -31 -45 -43 -1 -23 -33 -88 -40 -81 -3 3 2
19 10 36 9 16 12 32 8 35 -14 8 -52 -69 -52 -104 0 -17 -4 -39 -9 -48 -5 -10
-12 -38 -15 -62 -2 -25 -6 -54 -8 -65 -2 -13 2 -19 11 -17 7 1 19 -2 25 -8 7
-5 15 -7 18 -5 3 3 3 -6 0 -20 -4 -25 -5 -25 -29 -9 -14 9 -29 12 -33 7 -10
-11 -91 -472 -96 -551 -3 -41 1 -75 10 -97 21 -48 85 -109 132 -122 66 -20
283 -55 302 -49 10 4 23 18 30 34 8 18 10 20 6 5 -3 -14 -1 -23 6 -23 6 0 10
-8 8 -17 -3 -14 14 -20 97 -34 55 -9 101 -13 103 -8 2 5 10 9 18 9 8 0 14 5
14 12 0 6 3 8 7 4 5 -4 0 -14 -11 -21 -18 -13 -17 -14 5 -20 13 -3 44 -7 69
-8 25 -1 47 -5 50 -8 10 -12 78 -20 85 -9 9 14 26 13 22 -2 -1 -7 34 -18 93
-29 123 -23 136 -24 120 -4 -18 22 -4 18 17 -4 10 -11 36 -22 58 -25 22 -3 59
-10 83 -15 43 -8 43 -8 77 36 27 36 32 47 22 58 -7 7 -15 11 -20 8 -4 -2 -7
-1 -6 4 5 20 -15 42 -42 48 -20 5 -29 13 -29 26 0 15 5 19 19 14 17 -5 20 3
31 67 12 71 12 72 -11 92 -14 12 -25 26 -27 31 -1 6 -7 10 -12 10 -6 0 -15 7
-20 15 -16 24 -26 -1 -46 -107 -10 -51 -20 -97 -24 -103 -3 -6 -31 -11 -61
-12 -92 -3 -164 51 -188 140 -6 21 -13 27 -34 25 -15 -1 -27 2 -27 6 0 5 -14
11 -30 15 -28 5 -43 26 -19 26 5 0 7 5 4 10 -4 6 8 2 27 -10 57 -35 63 -30 63
58 0 42 4 101 8 130 7 51 7 53 -12 43 -11 -6 -27 -18 -35 -27 -9 -8 -16 -11
-16 -5 0 6 18 23 40 37 41 27 50 50 28 73 -11 10 -10 11 3 6 12 -4 19 5 28 37
7 24 31 78 53 121 39 74 40 78 24 102 -9 13 -16 30 -16 37 0 7 8 1 18 -14 21
-35 32 -35 63 -2 37 40 96 66 135 61 47 -7 84 -33 84 -60 1 -21 1 -21 14 -4
25 33 25 2 1 -41 -15 -26 -19 -42 -12 -42 7 0 4 -7 -5 -14 -10 -7 -18 -23 -18
-34 0 -25 -19 -40 -29 -23 -4 7 -8 -2 -8 -19 0 -16 4 -30 9 -30 4 0 0 -9 -9
-20 -10 -11 -22 -20 -27 -20 -5 0 -1 10 10 22 19 21 19 21 -3 16 -27 -7 -29 0
-7 30 12 17 12 22 2 23 -7 0 0 5 15 11 19 7 26 15 23 25 -3 8 -6 33 -6 55 0
32 -3 39 -15 34 -8 -3 -15 -1 -15 4 0 6 5 10 11 10 16 0 6 44 -12 48 -56 10
-161 -184 -175 -327 -5 -43 -3 -52 7 -46 8 3 3 -3 -10 -14 -15 -14 -21 -28
-18 -41 3 -10 1 -20 -4 -22 -15 -5 -22 -208 -10 -268 6 -30 15 -60 19 -66 11
-18 49 -26 49 -12 0 7 10 69 22 138 15 82 19 126 12 128 -7 2 -6 10 2 22 9 16
8 22 -8 34 -11 8 -18 17 -15 19 7 7 158 -17 167 -26 3 -4 -3 -16 -15 -27 -25
-23 -29 -62 -8 -79 11 -9 20 -2 45 35 17 26 31 43 31 37 0 -6 -11 -27 -25 -47
-29 -43 -30 -46 -12 -46 20 0 52 40 66 79 14 41 14 44 1 36 -5 -3 -10 -2 -10
4 0 5 4 11 9 13 6 2 14 30 20 63 61 358 63 374 41 360 -5 -3 -12 0 -15 6 -4 5
-13 8 -21 5 -16 -6 -19 5 -4 20 7 7 4 18 -9 36 -24 30 -38 78 -22 78 6 0 11
-12 11 -26 0 -22 2 -24 14 -14 13 10 15 7 13 -17 -2 -23 2 -28 21 -27 26 1 30
-13 5 -18 -10 -2 23 -10 72 -18 50 -8 93 -13 98 -12 4 1 7 -5 7 -13 0 -8 -5
-15 -11 -15 -5 0 -7 -4 -4 -10 3 -5 0 -7 -7 -5 -10 4 -19 -21 -35 -97 -20 -97
-20 -104 -5 -123 16 -18 16 -19 0 -6 -18 14 -16 18 -33 -65 -5 -23 -3 -25 17
-19 13 4 29 12 36 17 6 6 12 7 12 2 0 -14 -18 -39 -30 -40 -5 -1 -18 -2 -27
-3 -17 -1 -17 -2 0 -12 10 -6 27 -9 38 -6 10 3 17 2 14 -3 -5 -8 55 -23 62
-16 2 2 5 29 6 60 1 31 5 56 10 56 4 0 7 10 7 22 0 17 -3 19 -12 10 -18 -18
-28 -15 -28 8 0 16 5 19 24 14 21 -5 24 -2 30 44 3 27 4 56 0 65 -3 8 -1 18 5
22 14 8 14 65 1 65 -5 0 -10 7 -10 16 0 12 7 15 26 11 20 -3 34 3 58 25 17 17
44 40 60 51 26 19 29 19 23 3 -4 -10 -7 -20 -7 -22 0 -2 -5 -4 -11 -4 -6 0
-24 -14 -39 -31 -31 -32 -30 -33 33 -44 20 -3 37 -11 37 -17 0 -7 6 -6 15 2
22 18 31 4 11 -16 -9 -9 -19 -14 -22 -11 -3 3 -15 -5 -28 -17 -24 -22 -43 -86
-26 -86 6 0 10 -8 10 -17 0 -14 -2 -15 -9 -4 -5 7 -11 9 -14 5 -5 -9 -62 -293
-70 -349 -5 -30 23 -81 37 -68 3 4 6 1 6 -5 0 -19 -18 -14 -34 10 -19 27 -19
26 -46 -116 -18 -98 -19 -111 -5 -126 22 -24 19 -39 -7 -32 -21 5 -21 4 -5
-19 21 -29 21 -39 3 -39 -19 0 -46 38 -39 55 3 10 -11 15 -51 20 -58 7 -71 19
-36 30 11 3 23 18 26 33 3 15 8 34 10 44 3 9 -5 23 -17 32 -13 9 -20 18 -17
21 3 3 13 -1 22 -10 9 -9 16 -15 16 -13 0 2 11 65 25 142 14 76 22 142 19 147
-3 5 -26 9 -52 9 -33 0 -43 -3 -32 -10 12 -8 10 -15 -16 -42 -40 -42 -56 -72
-48 -92 4 -9 1 -16 -6 -16 -8 0 -10 -9 -6 -24 3 -13 2 -26 -3 -28 -5 -2 -14
-39 -20 -82 -10 -67 -9 -82 4 -96 20 -22 9 -31 -22 -19 -42 16 -56 12 -33 -11
11 -11 25 -20 30 -20 6 0 10 -5 10 -11 0 -5 4 -8 8 -5 4 2 13 -4 20 -14 16
-26 -4 -37 -27 -16 -16 15 -20 13 -49 -29 -36 -51 -44 -43 66 -65 72 -14 85
-13 78 5 -3 8 -1 15 4 15 6 0 10 -6 10 -13 0 -7 19 -18 43 -24 77 -21 271 -55
322 -57 28 0 52 -4 55 -8 3 -4 25 -10 48 -14 l43 -7 -4 58 c-5 63 -25 87 -53
64 -16 -13 -30 -6 -19 10 3 6 19 11 36 11 35 0 38 11 7 25 -90 40 -113 255
-52 495 30 121 29 111 20 170 -6 42 -6 44 8 21 7 -14 12 -32 9 -40 -3 -11 -1
-10 7 2 6 10 9 25 6 33 -3 9 -1 12 4 9 6 -3 10 -1 10 5 0 25 83 121 121 141
63 31 134 9 159 -51 7 -17 15 -28 19 -26 3 2 6 -8 7 -22 5 -166 6 -239 1 -252
-17 -46 -15 -116 4 -105 5 4 6 -1 3 -10 -4 -9 -12 -14 -19 -11 -8 3 -16 -15
-25 -52 -17 -78 -57 -178 -92 -230 -16 -23 -26 -47 -23 -52 3 -6 -3 -10 -14
-10 -32 0 -25 -23 24 -78 24 -27 42 -52 38 -55 -7 -8 -57 18 -115 60 -28 20
-49 29 -53 23 -3 -6 -5 -39 -3 -74 l3 -64 103 -17 c99 -16 136 -14 100 6 -14
8 -14 14 -5 44 8 28 13 32 19 21 5 -8 15 -13 23 -10 12 5 15 -3 15 -39 0 -35
4 -47 18 -51 16 -5 180 -34 232 -41 27 -4 35 -5 190 -35 129 -25 127 -25 105
0 -15 16 -15 20 -3 20 8 0 20 -11 26 -25 7 -15 20 -25 33 -25 33 0 106 48 118
78 6 15 21 34 33 41 l21 13 -21 -36 c-12 -21 -22 -43 -22 -50 0 -20 -27 -39
-55 -39 -14 1 -25 -3 -25 -7 0 -6 222 -51 227 -46 2 2 -3 11 -11 21 -12 16
-16 17 -30 6 -11 -9 -16 -10 -16 -2 0 6 5 11 10 11 14 0 12 28 -6 79 -8 24
-13 46 -10 48 2 2 12 -18 21 -46 9 -28 21 -51 27 -51 6 0 9 -3 5 -6 -9 -9 21
-64 36 -65 6 0 21 -3 32 -5 11 -2 43 -6 71 -8 28 -2 60 -9 72 -15 12 -6 46
-13 76 -14 30 -1 52 -5 50 -8 -2 -3 29 -11 69 -17 67 -10 611 -105 668 -118
22 -4 28 -1 33 21 4 14 11 23 16 20 7 -4 7 -13 0 -25 -12 -23 0 -28 91 -36
l69 -7 0 32 c0 17 5 31 10 31 6 0 10 -11 10 -25 0 -28 8 -30 45 -13 18 8 25
19 26 42 1 27 2 28 8 8 l6 -24 22 24 c29 31 50 83 57 142 3 26 8 52 12 57 5 9
-53 36 -68 31 -5 -1 -8 8 -8 21 0 18 2 19 10 7 5 -8 10 -10 10 -5 0 6 3 5 8
-1 4 -6 17 -14 29 -18 26 -8 23 -18 57 179 14 78 20 141 15 143 -5 2 -2 10 6
19 20 20 19 41 -2 46 -17 4 -17 5 -1 6 20 1 20 3 48 161 17 98 18 115 6 122
-10 6 -13 19 -10 41 4 23 -1 41 -19 67 -13 19 -29 34 -35 33 -7 -2 -11 2 -9 8
5 25 -79 51 -293 90 -123 22 -246 41 -274 42 -48 2 -51 1 -54 -25 -4 -31 -27
-55 -37 -38 -3 5 0 10 7 10 8 0 15 12 16 26 2 24 0 25 -16 13 -9 -8 -19 -16
-22 -19 -3 -3 -15 -11 -27 -17 -18 -10 -21 -10 -17 1 3 7 16 18 30 25 15 6 22
16 18 23 -4 6 -3 8 4 4 6 -3 13 -2 16 3 4 5 -2 12 -11 15 -33 9 -146 27 -177
28 -17 0 -36 5 -42 9 -6 5 -35 10 -65 11 -30 2 -57 7 -60 11 -3 5 -28 9 -55
10 -27 1 -51 4 -54 7 -9 10 -608 113 -618 106 -6 -3 -13 -2 -16 3 -4 5 -25 12
-49 16 -23 3 -49 9 -58 11 -12 3 -21 -7 -32 -33 -17 -41 -23 -31 -7 11 8 22 6
26 -13 31 -53 11 -317 55 -324 54 -4 -1 -15 1 -23 4 -31 13 -534 97 -548 92
-8 -3 -21 0 -29 6 -11 10 -21 7 -46 -11 -30 -22 -31 -22 -13 -2 11 12 17 24
15 25 -2 2 -43 10 -90 18 -78 13 -86 13 -78 -1 15 -29 29 -82 23 -91 -3 -5 0
-9 5 -9 6 0 11 -7 11 -16 0 -8 4 -13 9 -10 5 3 11 -3 14 -14 3 -11 1 -22 -3
-25 -11 -7 -50 49 -50 72 0 10 -7 29 -16 41 -9 13 -13 26 -10 29 8 9 -42 53
-60 53 -32 0 -96 -42 -105 -69 -6 -16 -21 -33 -35 -40 l-25 -11 24 32 c14 18
28 47 31 64 6 27 11 31 34 28 15 -2 2 3 -28 11 -30 8 -78 17 -107 19 -28 2
-55 6 -60 9 -5 3 -69 16 -144 28 -126 21 -138 22 -152 7 -9 -9 -22 -18 -29
-21 -10 -3 -10 -9 -1 -25 11 -19 8 -32 -8 -32 -4 0 -10 12 -13 28 -14 57 -30
81 -60 88 -19 4 -31 2 -37 -7 -7 -11 -9 -10 -9 5 0 14 -6 17 -25 14 -14 -3
-25 -2 -25 2 0 4 -30 12 -67 18 -59 10 -68 9 -81 -6 -13 -16 -13 -16 -8 0 6
21 14 18 -180 53 -175 31 -200 31 -255 2z m356 -67 c3 -5 1 -10 -4 -10 -6 0
-11 5 -11 10 0 6 2 10 4 10 3 0 8 -4 11 -10z m80 -39 c-3 -12 -10 -21 -15 -21
-5 0 -4 11 2 25 13 29 23 26 13 -4z m-222 -71 c74 -12 97 -27 58 -37 -15 -4
-24 -32 -50 -161 -17 -87 -31 -167 -31 -179 0 -18 9 -24 55 -34 34 -7 59 -9
64 -3 5 5 13 37 19 72 8 55 7 64 -8 72 -10 5 -21 6 -25 2 -5 -4 -5 -2 -1 5 4
7 14 9 23 6 11 -4 14 -3 9 6 -5 7 -2 10 6 9 8 -2 13 7 14 22 0 14 3 30 6 35 3
6 9 34 13 63 6 43 4 57 -11 73 -17 18 -16 19 9 19 21 0 27 5 28 23 1 21 1 21
8 -3 6 -21 15 -26 61 -33 63 -10 86 -25 53 -33 -20 -6 -33 -30 -33 -64 0 -10
3 -11 8 -4 5 9 11 8 20 -2 11 -12 9 -14 -12 -14 -24 0 -25 -3 -23 -47 2 -33
-1 -51 -11 -59 -8 -6 -15 -28 -16 -50 -1 -37 1 -39 33 -44 30 -4 32 -7 19 -18
-11 -9 -18 -10 -23 -2 -12 19 -44 11 -49 -12 -18 -86 -23 -127 -20 -158 3 -29
2 -31 -6 -15 -8 15 -9 9 -5 -28 3 -30 1 -46 -5 -42 -6 3 -10 -1 -10 -9 0 -10
9 -16 23 -16 20 0 19 -2 -10 -20 -17 -10 -32 -27 -31 -37 0 -10 -5 -44 -12
-76 -12 -52 -11 -59 5 -77 10 -11 16 -22 14 -25 -3 -2 -34 1 -68 7 -59 11 -64
11 -78 -8 -15 -18 -15 -18 -8 4 4 13 2 22 -4 22 -6 0 -11 7 -11 16 0 8 4 13 9
10 17 -11 39 31 50 98 9 48 9 72 2 79 -15 15 -14 27 4 27 8 0 15 9 15 20 0 11
-5 20 -12 20 -6 0 -4 6 6 13 13 9 18 28 19 69 1 31 5 54 10 51 4 -2 7 1 7 6 0
6 -22 12 -50 13 -27 1 -58 2 -67 2 -25 1 -29 -33 -6 -49 17 -13 17 -14 -3 -9
-17 4 -22 0 -26 -19 -3 -14 0 -33 5 -42 6 -12 6 -16 -1 -11 -5 3 -13 -2 -17
-11 -3 -10 -1 -19 5 -21 8 -3 7 -9 -3 -21 -14 -16 -37 -125 -37 -174 0 -14 7
-30 16 -35 26 -14 2 -22 -42 -12 -21 4 -56 11 -76 14 -41 7 -49 21 -20 30 14
5 22 24 30 71 7 35 12 68 11 72 -1 4 0 15 3 23 3 8 11 47 17 85 12 71 7 110
-11 99 -5 -3 -4 3 4 15 12 19 13 19 19 3 5 -15 27 92 28 138 0 8 2 27 5 43 3
19 0 27 -10 27 -9 0 -13 4 -9 10 3 5 11 7 18 4 10 -3 17 22 28 92 15 90 14 97
-2 107 -18 11 -14 41 5 34 7 -3 47 -11 89 -17z m922 -25 c0 -18 -3 -20 -17
-12 -17 11 -15 34 5 34 7 0 12 -10 12 -22z m-213 -11 c-19 -15 -37 -36 -42
-48 -8 -21 -8 -20 -18 4 -8 21 -6 26 10 28 10 2 24 12 31 23 6 10 21 19 32 19
17 0 15 -5 -13 -26z m298 7 c-5 -11 -15 -23 -21 -27 -6 -3 -3 5 6 20 20 30 30
35 15 7z m-418 -19 c-18 -10 -30 -21 -27 -24 9 -9 -17 -48 -32 -48 -17 0 -21
-10 -37 -83 l-13 -65 23 10 c13 6 24 15 24 19 0 4 7 9 15 13 31 11 14 -11 -24
-32 -34 -19 -41 -29 -50 -73 -15 -69 -14 -79 12 -107 l22 -25 -27 18 c-27 17
-28 17 -29 -1 -2 -25 -2 -29 -18 -97 -7 -32 -10 -61 -7 -64 3 -4 2 -11 -3 -17
-5 -6 -14 -42 -20 -81 -6 -38 -15 -87 -20 -108 -8 -32 -7 -36 5 -26 10 9 14 9
14 0 0 -6 -7 -14 -15 -17 -20 -8 -19 -43 3 -67 17 -20 16 -20 -28 -12 -25 4
-64 11 -88 15 -53 9 -62 17 -30 29 22 8 27 20 42 99 19 108 19 111 4 108 -29
-6 -48 -19 -48 -32 0 -17 -12 -18 -28 -2 -20 20 -14 28 18 28 24 0 30 4 28 18
-2 11 4 18 20 20 27 4 27 8 2 50 -11 18 -20 38 -20 45 1 6 10 -6 22 -27 26
-50 30 -42 52 94 39 245 39 251 20 243 -14 -5 -13 -1 4 23 12 16 24 41 28 57
5 22 3 26 -10 21 -9 -3 -16 -12 -16 -20 0 -19 -16 -18 -24 2 -9 24 -7 42 3 26
7 -12 12 -12 30 -1 24 16 27 37 6 45 -8 4 -15 12 -15 20 0 10 8 12 33 6 17 -4
48 -7 69 -7 20 0 34 -3 32 -6 -2 -4 10 -9 26 -11 30 -4 40 5 19 17 -11 7 46
42 71 43 8 1 0 -7 -18 -16z m546 -21 c-1 -16 -5 -28 -9 -25 -4 2 -12 -4 -18
-13 -15 -26 -13 -11 4 31 18 44 26 46 23 7z m-269 -3 c-2 -2 -17 -14 -34 -28
l-30 -25 24 28 c14 15 29 27 34 27 6 0 8 -1 6 -2z m608 -38 c-1 -12 -5 -16
-10 -11 -5 5 -6 14 -3 20 11 16 15 13 13 -9z m-1161 -17 c-7 -7 -26 7 -26 19
0 6 6 6 15 -2 9 -7 13 -15 11 -17z m571 11 c-3 -3 -12 -4 -19 -1 -8 3 -5 6 6
6 11 1 17 -2 13 -5z m-1221 -41 c-10 -10 -19 5 -10 18 6 11 8 11 12 0 2 -7 1
-15 -2 -18z m454 6 c0 -4 -7 -6 -15 -3 -8 4 -15 10 -15 15 0 4 7 6 15 3 8 -4
15 -10 15 -15z m484 6 c3 -8 1 -15 -4 -15 -6 0 -10 7 -10 15 0 8 2 15 4 15 2
0 6 -7 10 -15z m-274 -45 c0 -5 -5 -10 -11 -10 -5 0 -7 5 -4 10 3 6 8 10 11
10 2 0 4 -4 4 -10z m-516 -21 c-3 -5 -10 -7 -15 -3 -5 3 -7 10 -3 15 3 5 10 7
15 3 5 -3 7 -10 3 -15z m-69 -9 c3 -5 4 -14 1 -19 -9 -13 -46 -1 -46 15 0 16
36 19 45 4z m1255 -54 c0 -26 -6 -18 -14 19 -5 22 -4 26 4 15 5 -8 10 -24 10
-34z m-1187 0 c-5 -26 -33 -26 -33 -1 0 7 -3 15 -7 18 -5 2 -3 2 4 1 7 -2 15
1 18 7 11 17 22 0 18 -25z m1751 9 c-4 -8 -8 -15 -10 -15 -2 0 -4 7 -4 15 0 8
4 15 10 15 5 0 7 -7 4 -15z m474 -40 l-3 -54 67 -11 c37 -7 72 -9 77 -6 12 8
4 34 -17 59 -18 20 -12 30 12 21 35 -13 32 -102 -4 -111 -24 -6 -28 -23 -69
-239 -32 -168 -38 -229 -21 -239 6 -3 10 -14 10 -23 -1 -15 -2 -15 -14 1 -8
10 -17 14 -20 9 -3 -6 -11 -63 -17 -128 -11 -104 -10 -124 4 -156 10 -23 23
-38 33 -38 21 0 54 28 54 45 0 7 7 26 16 44 23 46 24 96 2 95 -10 -1 -15 2
-12 7 3 5 11 9 19 9 8 0 17 4 20 10 3 6 -1 7 -9 4 -9 -3 -16 -2 -16 4 0 18 12
42 21 42 4 0 6 -7 3 -15 -4 -8 -2 -15 3 -15 9 0 46 189 59 300 2 25 9 61 14
80 5 19 12 65 16 103 6 62 5 69 -17 90 -13 12 -25 31 -26 42 -1 19 -1 19 12 2
21 -29 75 -40 97 -20 17 15 18 15 18 -5 0 -16 6 -22 23 -22 34 0 41 -12 18
-30 -26 -20 -53 -217 -31 -230 7 -4 9 -13 6 -19 -4 -6 -2 -11 4 -11 6 0 8 -5
4 -12 -5 -7 -2 -9 7 -6 10 4 15 -1 16 -13 2 -27 -9 -23 -32 10 -11 17 -21 29
-22 27 -2 -1 -12 -56 -23 -122 -11 -65 -30 -150 -42 -189 -12 -38 -21 -73 -20
-78 1 -4 -6 -15 -16 -26 -9 -10 -30 -35 -46 -56 -41 -53 -103 -79 -155 -65
-22 6 -43 15 -46 20 -3 6 -20 10 -37 10 -29 0 -30 -1 -24 -35 4 -21 3 -35 -3
-35 -6 0 -8 -7 -5 -15 4 -8 1 -15 -5 -15 -6 0 -11 -7 -11 -17 0 -9 -3 -14 -6
-10 -4 3 -3 14 1 24 20 45 22 80 6 96 -8 8 -15 7 -23 -1 -9 -9 -9 -12 0 -12 7
0 12 -7 12 -15 0 -8 -9 -15 -19 -15 -16 0 -19 7 -19 33 1 17 5 35 10 38 11 7
-7 48 -26 62 -6 5 -2 6 10 3 18 -6 20 -1 22 46 1 29 4 64 8 78 4 14 6 61 6
105 -1 74 0 78 13 55 16 -28 20 -76 6 -82 -4 -1 -2 -21 4 -43 l13 -40 1 41 c1
22 12 98 26 168 14 71 24 131 21 134 -3 2 -12 -1 -20 -7 -10 -9 -16 -9 -21 -1
-9 14 3 27 30 32 11 2 19 11 19 21 -1 9 1 15 5 12 4 -2 18 43 31 101 18 81 20
108 11 113 -7 5 -11 21 -9 37 3 27 1 29 -32 26 -26 -1 -31 0 -20 8 8 5 23 10
33 10 12 0 17 8 17 30 0 17 5 30 11 30 7 0 10 -20 7 -55z m-2193 25 c3 -6 -1
-7 -9 -4 -18 7 -21 14 -7 14 6 0 13 -4 16 -10z m2342 4 c-3 -3 -12 -4 -19 -1
-8 3 -5 6 6 6 11 1 17 -2 13 -5z m68 -4 c4 -7 -3 -8 -22 -4 -38 9 -42 14 -10
14 14 0 29 -5 32 -10z m-1900 -9 c3 -5 1 -12 -5 -16 -5 -3 -10 1 -10 9 0 18 6
21 15 7z m1269 -15 c-10 -8 -21 -12 -24 -9 -3 2 4 11 14 19 11 7 22 12 25 9 2
-3 -4 -12 -15 -19z m512 17 c-3 -4 -12 -8 -19 -9 -7 -1 -20 -5 -29 -9 -10 -4
-18 -3 -18 3 0 11 21 19 54 21 11 0 16 -2 12 -6z m198 -13 c8 0 27 -11 41 -26
14 -14 30 -22 36 -18 6 3 15 0 20 -7 13 -21 11 -36 -5 -36 -8 0 -12 6 -9 12 6
17 -38 27 -56 12 -12 -10 -14 -9 -8 5 3 10 2 20 -4 23 -5 4 -6 11 -3 17 4 6
-1 8 -15 3 -29 -9 -61 3 -54 20 4 11 10 12 23 5 10 -6 26 -10 34 -10z m-806
-46 c-4 -3 -12 5 -18 18 -12 22 -12 22 6 6 10 -10 15 -20 12 -24z m-127 -5
c-5 -13 -10 -19 -10 -12 -1 15 10 45 15 40 3 -2 0 -15 -5 -28z m1479 17 c0
-11 -19 -15 -25 -6 -3 5 1 10 9 10 9 0 16 -2 16 -4z m-2125 -16 c-3 -5 -11
-10 -16 -10 -6 0 -7 5 -4 10 3 6 11 10 16 10 6 0 7 -4 4 -10z m670 -30 c-5
-25 -10 -29 -19 -20 -8 10 -8 14 2 17 6 3 12 14 12 26 0 11 3 18 6 14 3 -3 3
-20 -1 -37z m1596 -7 c9 -7 19 -10 22 -6 4 3 7 2 7 -3 0 -5 -9 -15 -20 -22
-17 -11 -20 -10 -20 7 0 10 -10 26 -22 35 -20 14 -21 15 -3 9 11 -3 27 -12 36
-20z m-1027 -28 c5 -22 4 -26 -4 -15 -5 8 -10 24 -10 34 0 26 6 18 14 -19z
m-2246 13 c-6 -18 -25 -21 -25 -3 0 8 7 15 15 15 7 0 12 -5 10 -12z m3247 2
c3 -5 2 -10 -4 -10 -5 0 -13 5 -16 10 -3 6 -2 10 4 10 5 0 13 -4 16 -10z m91
-24 c8 -8 14 -18 14 -22 0 -5 -5 -3 -11 3 -6 6 -18 9 -25 6 -14 -5 -19 8 -7
20 9 10 13 9 29 -7z m295 -10 c14 0 15 -4 6 -24 -11 -23 -11 -23 -19 -3 -4 12
-10 21 -13 21 -4 0 -4 -4 -1 -9 3 -4 -4 -17 -17 -27 l-22 -19 19 23 c11 12 15
22 9 22 -5 0 -10 7 -10 15 0 11 6 14 16 9 9 -4 23 -7 32 -8z m-2625 -13 c-2
-10 -11 -20 -22 -22 -19 -3 -19 -3 0 18 23 26 25 26 22 4z m-1136 3 c0 -3 -4
-8 -10 -11 -5 -3 -10 -1 -10 4 0 6 5 11 10 11 6 0 10 -2 10 -4z m2920 -35 c0
-6 -7 -8 -15 -5 -8 4 -15 15 -15 26 0 17 2 18 15 4 8 -8 15 -19 15 -25z m903
32 c2 -5 -2 -24 -9 -43 -12 -33 -13 -33 -13 -8 -1 14 -4 33 -7 42 -6 16 21 24
29 9z m-2631 -25 c-7 -7 -12 -8 -12 -2 0 14 12 26 19 19 2 -3 -1 -11 -7 -17z
m1841 6 c21 -7 21 -2 2 -359 -8 -166 -10 -274 -4 -279 11 -12 12 -39 1 -32 -5
3 -9 -35 -9 -84 -1 -56 3 -92 9 -96 7 -5 9 -2 6 7 -4 9 4 19 18 26 27 12 34
-3 12 -25 -6 -6 -9 -14 -6 -18 9 -8 48 5 48 17 0 6 -4 7 -10 4 -15 -9 -12 11
9 58 11 23 36 139 55 257 20 118 39 225 41 238 4 16 1 22 -12 23 -17 1 -17 2
-1 6 19 5 21 11 38 107 8 47 7 62 -5 79 -22 32 -18 39 18 32 57 -11 107 -12
107 -4 0 5 4 9 10 9 5 0 7 -7 3 -15 -3 -9 -2 -15 3 -14 26 4 43 -2 38 -15 -3
-9 3 -17 15 -21 11 -3 23 -15 26 -26 4 -10 10 -17 15 -14 5 3 14 -3 20 -14 7
-13 7 -22 0 -26 -5 -3 -10 -2 -10 4 0 6 -7 7 -17 4 -11 -4 -14 -3 -9 6 11 18
-19 58 -50 65 -14 4 -29 5 -31 2 -6 -6 -52 -214 -53 -237 0 -9 10 -21 23 -28
22 -11 22 -11 -4 -8 -26 4 -27 2 -44 -87 -10 -50 -20 -97 -23 -105 -3 -9 -1
-12 6 -7 18 11 14 -15 -5 -36 -14 -16 -15 -21 -2 -45 8 -14 30 -36 49 -48 40
-26 70 -59 70 -78 0 -6 9 -1 20 13 25 32 25 18 -2 -66 -11 -38 -21 -78 -20
-90 1 -20 0 -20 -72 -5 l-73 15 -44 -34 -44 -34 34 36 33 36 -48 8 c-27 5 -60
8 -74 9 -14 0 -28 4 -32 10 -4 5 -17 9 -30 10 -51 1 -149 18 -154 26 -3 5 6
13 20 19 26 9 26 10 26 134 0 135 -7 154 -55 142 -16 -4 -27 -15 -31 -34 -3
-15 -12 -39 -20 -55 -8 -15 -13 -31 -10 -36 3 -4 -1 -17 -10 -27 -15 -18 -15
-18 -9 3 3 12 1 24 -5 28 -7 4 -3 13 9 23 25 22 38 102 16 102 -9 0 -20 -21
-30 -57 -9 -32 -21 -73 -26 -90 -6 -18 -8 -37 -5 -42 4 -5 2 -12 -4 -16 -15
-9 -12 -42 5 -49 8 -3 15 -11 15 -17 0 -11 -19 -10 -103 7 l-28 6 25 23 c23
21 25 29 20 72 -5 44 -4 46 9 28 14 -18 16 -15 32 40 10 33 21 69 26 80 25 58
45 134 42 164 -2 26 0 31 10 23 10 -9 27 31 81 188 l68 198 36 -4 c21 -3 45
-7 55 -10z m834 10 c-3 -3 -12 -4 -19 -1 -8 3 -5 6 6 6 11 1 17 -2 13 -5z
m-2790 -49 c-4 -8 -11 -15 -17 -15 -14 0 -13 27 3 33 16 6 21 1 14 -18z m-857
11 c0 -11 -19 -15 -25 -6 -3 5 1 10 9 10 9 0 16 -2 16 -4z m1360 -22 c0 -16
-35 -19 -45 -5 -6 11 26 32 37 25 5 -3 8 -12 8 -20z m1605 16 c3 -6 -1 -7 -9
-4 -18 7 -21 14 -7 14 6 0 13 -4 16 -10z m553 -10 c-7 -10 -14 -17 -17 -15 -4
4 18 35 25 35 2 0 -1 -9 -8 -20z m-1858 -1 c0 -6 -9 -22 -20 -36 -15 -19 -20
-21 -20 -9 0 9 5 16 10 16 6 0 10 9 10 20 0 11 5 20 10 20 6 0 10 -5 10 -11z
m-1266 -25 c8 -21 -7 -17 -21 6 -11 16 -10 18 1 14 8 -3 17 -12 20 -20z m3544
-4 c-7 -11 -17 -20 -22 -20 -5 0 -1 9 9 20 10 11 20 20 22 20 2 0 -2 -9 -9
-20z m-4058 0 c0 -5 -2 -10 -4 -10 -3 0 -8 5 -11 10 -3 6 -1 10 4 10 6 0 11
-4 11 -10z m3707 -22 c-3 -7 -5 -2 -5 12 0 14 2 19 5 13 2 -7 2 -19 0 -25z
m-209 4 c9 8 13 8 9 2 -4 -8 6 -14 30 -19 23 -4 38 -2 43 5 5 8 9 7 13 -4 4
-9 15 -16 26 -16 30 0 35 -19 8 -29 -25 -10 -27 -16 -53 -164 -2 -10 -6 -27
-9 -37 -3 -11 0 -20 10 -24 9 -3 13 -2 10 4 -9 14 29 12 43 -2 19 -19 14 -29
-7 -16 -15 9 -24 8 -43 -4 -19 -13 -27 -31 -37 -87 -10 -53 -10 -75 -2 -85 8
-10 7 -17 -4 -26 -8 -7 -15 -18 -15 -24 0 -14 53 -56 70 -56 6 0 8 -4 5 -10
-9 -15 -18 -12 -48 16 -16 14 -30 24 -33 21 -3 -2 -16 -66 -30 -142 -24 -130
-25 -138 -8 -156 23 -26 13 -32 -32 -20 -47 13 -57 7 -52 -35 2 -21 0 -33 -6
-31 -6 2 -10 13 -8 25 4 30 -15 62 -38 62 -25 0 -25 9 -3 26 10 7 15 16 11 20
-4 4 -14 1 -23 -6 -9 -7 -15 -8 -15 -2 0 6 5 12 12 14 7 3 9 12 4 23 -6 16 -9
17 -16 5 -11 -17 -12 -3 -1 23 6 16 10 14 32 -18 l26 -36 26 163 c18 112 23
167 16 180 -7 13 -6 18 3 16 8 -2 14 8 16 25 2 19 -1 27 -12 27 -9 0 -16 4
-16 9 0 5 8 8 17 7 14 -1 21 16 35 94 9 52 17 110 17 129 1 31 -1 33 -26 26
-27 -6 -27 -6 -9 14 11 12 25 21 32 21 15 0 28 35 18 51 -4 8 -9 7 -15 -2 -6
-10 -9 -6 -9 12 0 28 12 47 18 29 3 -7 9 -7 20 2z m332 -8 c0 -8 -5 -12 -10
-9 -6 4 -8 11 -5 16 9 14 15 11 15 -7z m-2880 -15 c0 -5 5 -7 10 -4 6 3 10 -3
10 -13 0 -18 -3 -19 -25 -9 -27 13 -34 37 -10 37 8 0 15 -5 15 -11z m-630 -31
c0 -10 -4 -17 -9 -13 -5 3 -17 -2 -25 -11 -9 -9 -16 -11 -16 -4 0 6 -4 8 -10
5 -5 -3 -7 0 -4 8 3 8 13 13 24 10 10 -3 21 0 24 6 4 6 1 9 -7 5 -8 -3 -14 1
-14 9 0 9 7 12 19 9 10 -2 18 -13 18 -24z m1320 12 c0 -5 -5 -10 -11 -10 -5 0
-7 5 -4 10 3 6 8 10 11 10 2 0 4 -4 4 -10z m2153 -15 c43 -9 89 -15 102 -12
14 2 25 0 25 -6 0 -5 9 -7 20 -4 11 3 23 1 26 -4 3 -5 21 -9 40 -9 24 0 34 -4
34 -16 0 -21 -21 -156 -27 -174 -9 -25 -22 19 -22 78 -1 38 -6 57 -21 72 -25
25 -50 26 -50 1 0 -11 -4 -21 -9 -23 -4 -1 -28 -108 -52 -237 -42 -230 -43
-234 -24 -248 19 -15 19 -15 -2 -8 -26 7 -28 3 -13 -26 6 -10 20 -19 32 -19
17 0 19 -3 10 -12 -9 -9 -16 -8 -30 5 -10 9 -21 17 -24 17 -3 0 -13 -48 -23
-106 -17 -99 -18 -107 -2 -116 25 -14 21 -25 -12 -30 -17 -2 -28 -1 -25 4 3 4
-7 9 -23 10 -15 1 -37 2 -48 3 -11 1 -29 6 -40 12 -19 11 -19 12 8 22 15 6 27
12 27 13 0 2 7 41 15 88 19 108 20 105 -12 81 -40 -33 -43 -13 -2 22 39 35 54
80 33 98 -8 7 -31 9 -52 6 -26 -3 -39 -1 -39 7 0 8 18 11 53 8 44 -2 53 0 57
15 10 33 19 138 12 131 -8 -7 -45 22 -45 36 0 5 9 1 20 -9 19 -18 20 -17 20 6
0 13 5 31 11 39 8 11 9 6 5 -20 -5 -26 -4 -30 3 -15 13 27 13 65 1 65 -5 0
-10 9 -10 20 0 11 -6 20 -12 21 -7 0 -1 5 15 11 30 11 40 36 41 109 1 26 4 45
9 42 4 -2 7 3 7 11 0 25 -66 21 -80 -3 -15 -29 -12 -33 13 -20 20 11 21 11 8
-4 -7 -10 -20 -17 -27 -17 -8 0 -14 -7 -14 -15 0 -8 -3 -15 -8 -15 -4 0 -13
-14 -20 -30 -25 -54 -30 -22 -10 62 25 108 26 111 41 105 7 -2 47 -12 90 -22z
m117 11 c0 -2 -7 -7 -16 -10 -8 -3 -12 -2 -9 4 6 10 25 14 25 6z m-883 -42
c14 -14 23 -27 21 -30 -3 -2 -17 10 -33 26 -35 36 -24 40 12 4z m-2032 -3 c3
-5 1 -12 -4 -15 -5 -3 -11 1 -15 9 -6 16 9 21 19 6z m3435 -6 c7 -8 21 -15 31
-15 10 0 20 -4 23 -8 3 -5 -8 -8 -24 -7 -29 2 -60 20 -60 36 0 14 16 11 30 -6z
m-2734 -32 c-3 -3 -13 -2 -23 2 -17 7 -17 8 2 15 19 7 34 -5 21 -17z m2904 17
c0 -5 -9 -14 -21 -20 -17 -10 -18 -14 -7 -27 12 -15 11 -15 -10 -4 -12 6 -26
9 -31 7 -5 -3 -12 1 -15 10 -5 13 -2 15 15 11 11 -3 18 -3 15 1 -4 3 4 12 16
19 28 15 38 16 38 3z m-1249 -14 c15 9 10 -12 -5 -25 -10 -8 -16 -9 -21 -1 -3
5 -2 10 4 10 6 0 9 6 7 13 -1 6 -1 9 1 4 3 -4 9 -5 14 -1z m867 -11 l47 -12
-27 -13 c-27 -13 -28 -16 -28 -96 0 -57 4 -84 13 -87 9 -3 9 -7 -1 -19 -10
-13 -10 -17 0 -20 10 -4 10 -8 2 -19 -19 -24 -16 -87 5 -99 13 -7 22 -6 29 3
11 14 23 49 19 58 -1 3 3 12 9 20 6 8 21 46 33 84 12 39 27 85 33 104 9 30 8
36 -8 48 -27 20 -11 25 49 18 54 -7 91 -23 72 -31 -5 -2 -15 -8 -22 -12 -13
-8 -125 -243 -119 -249 2 -2 21 -6 42 -9 45 -6 54 -12 34 -24 -9 -5 -19 -5
-26 1 -7 5 -24 7 -38 3 -29 -7 -60 -53 -97 -141 l-21 -51 21 -21 c11 -11 32
-23 46 -27 14 -3 25 -12 25 -20 0 -8 6 -11 16 -7 11 4 12 8 4 13 -8 5 -7 9 4
13 9 4 16 2 16 -3 0 -6 18 -10 39 -10 22 0 43 -6 47 -12 4 -7 4 -10 0 -6 -5 4
-18 3 -31 -2 -14 -5 -26 -5 -33 2 -6 6 -12 6 -16 0 -3 -6 12 -18 34 -28 26
-12 37 -21 30 -28 -6 -6 -19 -5 -36 3 -15 6 -29 10 -31 7 -2 -2 -15 7 -28 20
-30 30 -49 31 -40 3 4 -12 8 -41 9 -65 1 -39 -1 -42 -12 -27 -7 10 -12 27 -11
38 1 11 0 25 -1 30 -2 6 -3 17 -4 25 -1 10 -11 15 -31 15 l-30 0 -18 -99 c-18
-96 -18 -100 -1 -113 30 -22 10 -25 -75 -11 -83 13 -98 22 -58 37 20 7 24 22
42 142 18 113 19 136 7 148 -7 7 -11 20 -8 27 6 16 -10 28 -25 18 -8 -4 -7 -9
2 -15 9 -6 10 -9 2 -9 -20 0 -43 12 -43 22 0 6 6 8 14 5 15 -6 43 29 40 51 -1
6 -2 26 -3 42 -1 23 -6 30 -21 30 -11 0 -20 4 -20 9 0 5 9 7 21 4 12 -4 25 0
29 7 5 8 7 -1 5 -23 -2 -20 1 -49 6 -64 5 -18 6 23 3 112 -8 187 -19 294 -33
308 -6 6 -11 15 -11 20 0 10 92 0 158 -18z m-3902 -24 c-9 -10 -18 -28 -19
-39 -1 -12 -6 -18 -15 -15 -9 4 -10 9 -3 16 5 5 7 16 4 25 -4 10 -2 13 5 8 7
-4 15 -1 18 8 3 9 11 16 17 16 5 0 2 -8 -7 -19z m2391 13 c-3 -3 -12 -4 -19
-1 -8 3 -5 6 6 6 11 1 17 -2 13 -5z m334 -17 c-10 -9 -11 -8 -5 6 3 10 9 15
12 12 3 -3 0 -11 -7 -18z m602 8 c-3 -9 -8 -14 -10 -11 -3 3 -2 9 2 15 9 16
15 13 8 -4z m-183 -25 c0 -5 -4 -10 -10 -10 -5 0 -10 5 -10 10 0 6 5 10 10 10
6 0 10 -4 10 -10z m617 -9 c0 -11 -5 -18 -9 -15 -4 3 -5 11 -1 19 7 21 12 19
10 -4z m-349 -33 c14 -17 12 -18 -24 -17 -21 1 -31 3 -21 6 10 3 17 15 18 31
0 16 3 21 6 12 3 -8 12 -23 21 -32z m-3209 -9 c-8 -5 -18 -8 -24 -8 -5 0 -4 3
3 6 6 2 12 14 12 26 1 21 1 21 11 3 9 -14 8 -20 -2 -27z m3741 21 c0 -11 -2
-20 -4 -20 -2 0 -6 9 -9 20 -3 11 -1 20 4 20 5 0 9 -9 9 -20z m-335 0 c-3 -5
-11 -10 -16 -10 -6 0 -7 5 -4 10 3 6 11 10 16 10 6 0 7 -4 4 -10z m617 -22
c-15 -15 -24 -6 -16 16 5 12 10 14 17 7 8 -8 8 -14 -1 -23z m-3163 -24 c14 -7
16 -14 10 -29 -6 -17 -8 -17 -8 -2 -1 14 -17 22 -43 19 -3 -1 -1 13 5 30 10
25 13 27 15 11 2 -11 11 -24 21 -29z m2276 4 c18 -27 3 -37 -21 -14 -8 9 -20
16 -25 16 -5 0 -9 5 -9 10 0 19 39 10 55 -12z m-369 -20 c-18 -26 -22 -17 -5
14 6 11 13 17 16 15 3 -3 -2 -16 -11 -29z m769 5 c-2 -10 -4 -24 -4 -31 -1 -7
-5 -11 -10 -8 -10 7 -2 56 9 56 5 0 7 -8 5 -17z m502 -11 c-10 -10 -17 -23
-17 -29 0 -20 -27 -63 -35 -55 -5 4 -5 -1 -2 -10 4 -12 1 -18 -7 -18 -8 0 -16
-6 -18 -12 -3 -7 -7 -3 -10 9 -7 27 21 71 32 52 6 -8 11 1 16 27 7 40 18 54
43 54 11 0 11 -4 -2 -18z m-3434 -54 c-13 -12 -25 -19 -28 -16 -3 3 1 13 10
22 9 9 22 16 28 16 6 0 2 -10 -10 -22z m2275 -15 c14 -11 14 -13 1 -13 -8 0
-20 5 -27 12 -9 9 -17 5 -34 -18 -13 -16 -24 -33 -24 -39 -4 -26 -17 -55 -26
-55 -5 0 -5 6 0 17 7 11 5 21 -4 31 -12 11 -12 17 -3 28 10 12 8 18 -7 29 -10
8 -23 15 -27 15 -5 0 -5 5 -2 10 4 6 12 4 21 -5 35 -35 50 -36 80 -4 19 20 30
25 32 17 3 -7 11 -19 20 -25z m527 17 c3 -5 -1 -10 -10 -10 -9 0 -13 5 -10 10
3 6 8 10 10 10 2 0 7 -4 10 -10z m65 -31 c7 -11 9 -23 6 -27 -3 -3 -6 0 -6 7
0 9 -6 9 -22 1 -22 -11 -22 -10 -4 4 18 15 18 16 2 16 -9 0 -14 5 -11 10 10
16 23 12 35 -11z m-3679 -32 c-13 -13 -15 1 -4 30 7 17 8 17 11 -1 2 -10 -1
-23 -7 -29z m3369 22 c0 -6 -4 -7 -10 -4 -5 3 -10 11 -10 16 0 6 5 7 10 4 6
-3 10 -11 10 -16z m-3287 -9 c-3 -12 -8 -19 -11 -16 -5 6 5 36 12 36 2 0 2 -9
-1 -20z m981 4 c3 -8 2 -12 -4 -9 -13 8 -13 -28 1 -42 7 -7 6 -12 -5 -16 -9
-4 -16 -2 -16 4 0 6 -7 9 -15 5 -20 -7 -19 3 5 42 22 36 26 38 34 16z m-862
-26 c-9 -9 -12 -7 -12 12 0 19 3 21 12 12 9 -9 9 -15 0 -24z m588 0 c0 -6 -6
-5 -15 2 -8 7 -15 14 -15 16 0 2 7 1 15 -2 8 -4 15 -11 15 -16z m-280 -2 c0
-11 -19 -15 -25 -6 -3 5 1 10 9 10 9 0 16 -2 16 -4z m305 -5 c3 -5 1 -12 -5
-16 -5 -3 -10 1 -10 9 0 18 6 21 15 7z m-542 -16 c-3 -9 -8 -14 -10 -11 -3 3
-2 9 2 15 9 16 15 13 8 -4z m138 -8 c-10 -9 -11 -8 -5 6 3 10 9 15 12 12 3 -3
0 -11 -7 -18z m2525 6 c-2 -9 -9 -19 -17 -22 -8 -2 -19 -11 -26 -20 -7 -9 -13
-12 -13 -7 0 7 49 64 57 66 1 0 0 -8 -1 -17z m124 13 c0 -9 -30 -14 -35 -6 -4
6 3 10 14 10 12 0 21 -2 21 -4z m624 -32 c4 -11 0 -11 -19 -2 -14 6 -25 15
-25 19 0 12 38 -2 44 -17z m496 16 c-20 -13 -33 -13 -25 0 3 6 14 10 23 10 15
0 15 -2 2 -10z m-3660 -4 c0 -3 -4 -8 -10 -11 -5 -3 -10 -1 -10 4 0 6 5 11 10
11 6 0 10 -2 10 -4z m51 -19 c-10 -9 -11 -8 -5 6 3 10 9 15 12 12 3 -3 0 -11
-7 -18z m777 -3 c0 -15 -4 -22 -10 -16 -5 5 -6 16 -2 25 9 23 12 21 12 -9z
m-1141 -4 c2 -24 -8 -32 -27 -19 -13 7 -12 9 2 9 11 0 15 5 12 15 -4 8 -2 15
3 15 5 0 9 -9 10 -20z m1886 -4 c-5 -22 -6 -23 -23 -8 -22 18 -17 32 9 32 14
0 17 -6 14 -24z m2070 3 c-6 -6 -9 -18 -6 -27 4 -10 2 -13 -5 -8 -18 11 -14
46 5 46 13 0 14 -3 6 -11z m-3608 -29 c19 -8 19 -9 -2 -9 -12 -1 -25 4 -28 9
-7 12 2 12 30 0z m-260 -10 c7 -12 -2 -12 -30 0 -19 8 -19 9 2 9 12 1 25 -3
28 -9z m2160 0 c3 -5 1 -10 -4 -10 -6 0 -11 5 -11 10 0 6 2 10 4 10 3 0 8 -4
11 -10z m-1813 -15 c2 3 4 -4 3 -15 -2 -25 -11 -34 -25 -25 -9 6 -9 10 1 16
10 6 8 9 -9 9 -16 0 -26 -7 -30 -22 -5 -21 -6 -21 -12 -2 -9 25 -2 44 15 38 7
-3 16 0 20 6 5 8 11 8 19 1 7 -6 15 -9 18 -6z m1638 -12 c0 -2 -6 -11 -14 -18
-12 -12 -14 -11 -18 9 -4 19 -1 22 14 18 10 -2 18 -6 18 -9z m-1575 -3 c-3 -5
-1 -10 5 -10 6 0 23 -11 37 -25 22 -19 30 -22 42 -13 13 10 13 9 0 -6 -15 -17
-19 -17 -48 -2 -17 9 -31 21 -31 26 0 5 -10 12 -22 16 -22 7 -22 7 -3 15 27
10 27 10 20 -1z m2287 -12 c-14 -14 -44 -20 -36 -7 3 5 9 7 14 4 5 -3 11 -1
15 5 3 5 9 10 13 10 3 0 1 -5 -6 -12z m-905 -20 c-3 -8 -6 -5 -6 6 -1 11 2 17
5 13 3 -3 4 -12 1 -19z m380 0 c-3 -8 -6 -5 -6 6 -1 11 2 17 5 13 3 -3 4 -12
1 -19z m438 -8 c3 -5 -1 -10 -10 -10 -9 0 -13 5 -10 10 3 6 8 10 10 10 2 0 7
-4 10 -10z m-548 -32 c-3 -8 -6 -5 -6 6 -1 11 2 17 5 13 3 -3 4 -12 1 -19z
m-1420 -20 c-3 -8 -6 -5 -6 6 -1 11 2 17 5 13 3 -3 4 -12 1 -19z m2436 7 c-3
-9 -8 -14 -10 -11 -3 3 -2 9 2 15 9 16 15 13 8 -4z m337 -8 c0 -20 -72 -41
-107 -32 -28 8 -28 8 12 15 22 4 51 12 65 18 14 6 26 11 28 11 1 1 2 -5 2 -12z
m-1480 -22 c-7 -8 -17 -15 -23 -15 -5 0 -2 9 8 20 21 23 35 19 15 -5z m410
-25 c0 -13 -1 -13 -10 0 -5 8 -10 22 -10 30 0 13 1 13 10 0 5 -8 10 -22 10
-30z m-1153 -10 c1 -16 -1 -31 -5 -34 -4 -2 -8 11 -9 30 -1 19 1 34 5 34 4 0
8 -13 9 -30z m330 -2 c-3 -7 -5 -2 -5 12 0 14 2 19 5 13 2 -7 2 -19 0 -25z
m2350 -10 c-3 -8 -6 -5 -6 6 -1 11 2 17 5 13 3 -3 4 -12 1 -19z m-907 -19 c-7
-11 -14 -18 -17 -15 -3 3 0 12 7 21 18 21 23 19 10 -6z m113 -14 c-3 -9 -8
-14 -10 -11 -3 3 -2 9 2 15 9 16 15 13 8 -4z m-80 -30 c-3 -9 -8 -14 -10 -11
-3 3 -2 9 2 15 9 16 15 13 8 -4z m-1029 -8 c-4 -12 -44 -22 -44 -11 0 4 30 18
47 23 1 1 0 -5 -3 -12z m1325 -64 c2 -1 -2 -3 -10 -3 -8 0 -32 16 -54 36 l-40
35 50 -32 c28 -18 52 -34 54 -36z m-1189 1 c0 -2 -5 -4 -10 -4 -12 0 -30 41
-23 53 4 7 33 -36 33 -49z m842 24 c-7 -7 -12 -8 -12 -2 0 14 12 26 19 19 2
-3 -1 -11 -7 -17z m58 12 c0 -5 -2 -10 -4 -10 -3 0 -8 5 -11 10 -3 6 -1 10 4
10 6 0 11 -4 11 -10z m-1070 -4 c0 -3 -4 -8 -10 -11 -5 -3 -10 -1 -10 4 0 6 5
11 10 11 6 0 10 -2 10 -4z m275 -72 c-8 -20 -18 -35 -21 -32 -2 3 3 25 12 49
10 23 19 38 21 32 2 -6 -3 -28 -12 -49z m255 52 c0 -2 -7 -7 -16 -10 -8 -3
-12 -2 -9 4 6 10 25 14 25 6z m-350 -36 c0 -5 -5 -10 -11 -10 -5 0 -7 5 -4 10
3 6 8 10 11 10 2 0 4 -4 4 -10z m220 -39 c0 -11 -5 -23 -11 -27 -8 -4 -9 1 -4
16 5 15 4 20 -4 16 -6 -4 -11 -2 -11 3 0 6 7 11 15 11 8 0 15 -9 15 -19z m316
4 c-8 -8 -21 -15 -28 -15 -8 1 -6 6 6 15 26 20 42 19 22 0z m1044 -24 c0 -5
-8 -12 -17 -14 -16 -4 -15 -6 4 -12 18 -6 21 -12 16 -43 -8 -63 -13 -70 -27
-37 -8 18 -10 39 -5 52 5 14 4 23 -4 26 -9 3 -9 8 2 20 15 19 31 22 31 8z
m-1114 -29 c-18 -16 -18 -16 -6 6 6 13 14 21 18 18 3 -4 -2 -14 -12 -24z
m1264 1 c0 -21 -3 -24 -9 -14 -5 8 -7 20 -4 28 8 21 13 15 13 -14z m-1080 -53
c-14 -10 -27 -16 -30 -13 -6 6 30 33 44 33 6 0 0 -9 -14 -20z m60 -21 c0 -5
-7 -9 -15 -9 -9 0 -15 9 -15 21 0 18 2 19 15 9 8 -7 15 -16 15 -21z m83 6 c-3
-9 -8 -14 -10 -11 -3 3 -2 9 2 15 9 16 15 13 8 -4z m931 -33 c3 -5 -1 -9 -9
-9 -8 0 -12 4 -9 9 3 4 7 8 9 8 2 0 6 -4 9 -8z m-234 -16 c0 -16 -39 -66 -40
-50 0 15 24 64 33 64 4 0 7 -6 7 -14z m-163 -2 c-3 -3 -12 -4 -19 -1 -8 3 -5
6 6 6 11 1 17 -2 13 -5z m250 -56 c-3 -8 -6 -5 -6 6 -1 11 2 17 5 13 3 -3 4
-12 1 -19z m-30 -33 c36 -32 26 -32 -17 0 -19 14 -29 25 -23 25 7 0 25 -11 40
-25z"/>
<path d="M2481 2238 c0 -15 -5 -29 -10 -33 -6 -3 -8 -14 -6 -25 2 -11 0 -20
-6 -20 -5 0 -4 -9 3 -19 9 -15 9 -25 0 -45 -11 -25 -11 -26 27 -24 l38 1 -15
31 c-9 17 -19 60 -22 96 -4 36 -8 53 -9 38z"/>
<path d="M3056 2535 c-28 -82 -49 -160 -49 -172 0 -13 -3 -23 -8 -23 -5 0 -9
-8 -9 -17 0 -15 2 -16 10 -3 7 10 12 11 18 4 11 -16 42 -25 42 -12 0 6 3 8 8
4 4 -4 7 -13 7 -18 0 -6 5 -13 12 -15 8 -3 12 11 11 46 0 28 -4 51 -9 51 -5 0
-9 7 -9 15 0 8 4 15 9 15 11 0 24 144 19 220 l-3 55 -49 -150z"/>
<path d="M3414 2088 c-5 -29 -9 -63 -9 -75 -1 -12 -4 -25 -8 -29 -4 -4 -7 -18
-7 -32 0 -18 4 -23 16 -18 9 4 23 1 30 -5 23 -19 71 -1 94 37 19 30 20 37 9
63 -7 16 -17 27 -21 25 -4 -3 -8 0 -8 6 0 11 -70 80 -81 80 -4 0 -10 -24 -15
-52z"/>
<path d="M4035 2430 c-3 -5 -1 -10 4 -10 6 0 11 5 11 10 0 6 -2 10 -4 10 -3 0
-8 -4 -11 -10z"/>
<path d="M4502 2148 c-1 -27 1 -30 9 -15 6 9 8 21 4 26 -3 5 1 12 7 14 9 4 7
6 -3 6 -11 1 -16 -8 -17 -31z"/>
<path d="M4490 1975 c0 -16 16 -20 24 -6 3 5 -1 11 -9 15 -9 3 -15 0 -15 -9z"/>
<path d="M4124 3407 c-28 -31 -28 -31 -1 -8 l27 24 0 -26 c0 -22 -6 -27 -35
-33 -19 -3 -35 -12 -35 -20 0 -7 -8 -18 -17 -23 -10 -6 -14 -11 -8 -11 5 0 -1
-7 -13 -16 -12 -8 -22 -22 -22 -30 0 -9 -6 -14 -12 -11 -7 2 -34 -6 -59 -19
-36 -18 -49 -20 -59 -11 -7 7 -4 -5 8 -26 12 -21 22 -44 22 -52 0 -8 4 -16 9
-19 5 -4 7 2 5 11 -3 14 8 24 48 41 29 12 58 22 65 22 7 0 10 6 8 13 -3 7 24
41 59 76 58 57 67 63 82 50 12 -9 8 3 -11 41 -15 30 -28 56 -29 57 -2 2 -16
-12 -32 -30z m-164 -193 c-21 -25 -50 -37 -50 -21 0 10 27 27 59 36 2 1 -2 -6
-9 -15z"/>
<path d="M1095 3341 c2 -31 10 -33 30 -11 10 11 13 20 7 20 -6 0 -17 2 -25 5
-9 4 -13 -1 -12 -14z"/>
<path d="M3697 3303 c3 -10 14 -29 23 -43 10 -14 36 -61 59 -105 22 -43 41
-71 41 -62 0 10 -16 47 -35 82 -60 112 -107 179 -88 128z"/>
<path d="M3260 3257 c0 -30 -5 -40 -25 -49 -14 -6 -25 -14 -25 -18 0 -13 55
-19 63 -7 4 7 5 0 1 -15 -3 -15 -2 -34 3 -43 9 -15 12 -13 27 10 15 22 21 25
53 19 l36 -7 -23 30 c-21 29 -21 32 -6 62 18 34 14 37 -24 16 -23 -12 -27 -11
-52 13 l-28 26 0 -37z"/>
<path d="M4234 3240 c-6 -6 -43 -14 -82 -17 -40 -3 -72 -10 -72 -14 0 -5 37
-9 83 -9 81 0 82 0 82 25 0 14 0 25 0 25 -1 0 -6 -5 -11 -10z"/>
<path d="M3668 3224 c-4 -3 12 -44 35 -90 31 -61 46 -82 57 -78 11 4 12 2 3
-7 -13 -13 2 -69 19 -69 5 0 7 -4 4 -9 -3 -5 -1 -22 5 -39 8 -22 18 -31 40
-34 16 -3 29 -3 29 -2 0 21 -44 113 -52 108 -6 -4 -8 1 -4 14 7 21 -26 100
-48 114 -6 4 -8 8 -3 8 11 0 -31 80 -42 80 -5 0 -16 2 -23 5 -8 3 -17 3 -20
-1z m172 -304 c0 -5 -8 -10 -17 -10 -15 0 -16 2 -3 10 19 12 20 12 20 0z"/>
<path d="M3840 3038 c0 -24 44 -148 53 -148 5 0 7 6 5 13 -3 6 -15 42 -27 80
-22 64 -31 81 -31 55z"/>
<path d="M2305 2916 c-61 -61 -148 -474 -142 -677 2 -79 21 -117 52 -105 35
13 102 213 89 269 -4 21 -1 32 13 43 17 14 17 15 -4 9 -20 -5 -23 -2 -23 19 0
14 6 26 13 26 9 0 8 3 -2 9 -8 5 -9 11 -3 15 11 7 25 -21 17 -34 -3 -5 -1 -11
4 -14 12 -8 17 9 36 128 20 124 24 271 8 287 -6 6 -9 19 -6 28 3 12 0 11 -12
-4 -17 -20 -17 -20 -12 3 7 28 2 28 -28 -2z m12 -38 c-3 -7 -5 -2 -5 12 0 14
2 19 5 13 2 -7 2 -19 0 -25z m14 -69 c-2 -8 -3 -26 -2 -40 1 -17 -5 -29 -15
-33 -14 -5 -16 -1 -10 25 3 17 6 40 6 51 0 12 5 18 13 15 6 -2 10 -11 8 -18z
m-4 -126 c-3 -10 -5 -4 -5 12 0 17 2 24 5 18 2 -7 2 -21 0 -30z m-37 -242 c0
-5 -13 -11 -29 -14 -24 -5 -30 -12 -34 -39 -3 -27 -4 -25 -5 12 -2 45 -2 45
33 47 19 1 35 -2 35 -6z m-59 -154 c-6 -6 -12 -22 -12 -36 -1 -18 -3 -20 -6
-8 -5 19 20 84 26 66 2 -6 -2 -16 -8 -22z m-1 -97 c0 -16 -2 -30 -4 -30 -2 0
-6 14 -8 30 -3 17 -1 30 4 30 4 0 8 -13 8 -30z"/>
<path d="M4488 2815 c3 -23 9 -35 19 -35 11 0 14 6 9 23 -3 12 -6 28 -6 35 0
6 -6 12 -13 12 -9 0 -12 -11 -9 -35z"/>
<path d="M1618 2599 l-5 -31 18 23 c22 29 24 39 5 39 -8 0 -16 -13 -18 -31z"/>
<path d="M1467 2500 c-22 -26 -22 -42 3 -58 16 -10 20 -10 20 2 0 7 3 28 6 45
7 36 -4 40 -29 11z"/>
<path d="M344 2199 c12 -98 39 -219 46 -214 5 3 6 -3 3 -13 -13 -52 177 -522
212 -522 9 0 12 -6 8 -17 -6 -16 -5 -16 17 0 14 9 34 17 46 17 11 0 23 2 26 5
3 3 -19 53 -48 111 -29 58 -67 143 -85 190 -17 46 -35 82 -39 79 -11 -7 -46
22 -37 31 4 5 12 2 16 -5 5 -8 11 -9 15 -3 6 10 3 26 -14 67 -4 11 -16 58 -26
105 -19 94 -34 115 -88 125 -48 9 -46 22 4 22 22 0 38 -2 36 -6 -2 -3 3 -12
12 -20 14 -13 14 -10 8 29 -8 54 -12 58 -36 42 -16 -10 -18 -9 -14 3 4 10 0
15 -14 15 -11 0 -28 3 -38 7 -15 6 -16 1 -10 -48z m104 -114 c-6 -14 -13 -23
-16 -21 -7 7 9 46 18 46 5 0 4 -11 -2 -25z m3 -208 c-10 -9 -11 -8 -5 6 3 10
9 15 12 12 3 -3 0 -11 -7 -18z m79 -74 c0 -5 -9 -19 -20 -33 -15 -19 -20 -21
-20 -8 0 9 7 24 16 32 17 18 24 20 24 9z m-49 -26 c-10 -9 -11 -8 -5 6 3 10 9
15 12 12 3 -3 0 -11 -7 -18z"/>
<path d="M480 2204 c0 -17 22 -14 28 4 2 7 -3 12 -12 12 -9 0 -16 -7 -16 -16z"/>
<path d="M490 2159 c0 -11 5 -17 10 -14 6 3 10 1 10 -6 0 -7 3 -10 6 -6 8 8
-5 47 -17 47 -5 0 -9 -9 -9 -21z"/>
<path d="M1100 2102 c0 -37 114 -302 130 -302 5 0 -9 37 -30 83 -21 46 -44
102 -51 125 -7 23 -15 42 -19 42 -4 0 -8 6 -7 13 1 30 -4 47 -13 47 -5 0 -10
-4 -10 -8z"/>
<path d="M1140 2100 c0 -5 5 -10 11 -10 5 0 7 -5 4 -11 -7 -11 -2 -26 53 -156
19 -46 38 -83 42 -83 4 0 12 11 18 24 9 20 4 40 -32 127 -24 57 -47 103 -52
102 -5 0 -17 3 -26 8 -12 6 -18 6 -18 -1z m47 -32 c-3 -8 -6 -5 -6 6 -1 11 2
17 5 13 3 -3 4 -12 1 -19z"/>
<path d="M521 2084 c0 -11 3 -14 6 -6 3 7 2 16 -1 19 -3 4 -6 -2 -5 -13z"/>
<path d="M530 2045 c-4 -37 2 -70 13 -77 17 -10 17 -7 2 47 -7 28 -14 41 -15
30z"/>
<path d="M546 1925 c15 -83 159 -417 196 -456 7 -8 20 -27 27 -44 10 -21 16
-25 18 -14 5 21 -121 261 -132 252 -4 -5 -5 -3 -2 4 4 6 -8 51 -27 100 -19 48
-40 107 -46 130 -14 46 -42 69 -34 28z"/>
<path d="M1697 1861 c-16 -27 -21 -29 -55 -24 l-37 6 24 -27 c24 -26 25 -27 8
-55 -23 -40 -22 -42 17 -26 22 9 37 11 41 5 3 -5 14 -14 24 -19 15 -9 17 -6
13 20 -4 25 0 31 27 40 39 14 40 25 2 32 -23 5 -31 13 -37 42 l-9 36 -18 -30z"/>
<path d="M1040 1868 c0 -8 -44 -39 -105 -73 -57 -32 -101 -63 -98 -68 3 -6 1
-7 -6 -3 -6 4 -23 0 -38 -9 -21 -14 -27 -15 -34 -4 -17 27 -9 -2 12 -43 12
-23 24 -37 27 -32 13 18 114 75 130 73 30 -3 33 1 22 20 -7 13 -7 22 0 26 5 3
10 -1 10 -9 0 -10 6 -13 15 -10 8 4 12 11 8 17 -3 6 -1 7 5 3 6 -4 29 2 50 13
29 15 42 17 51 8 6 -6 11 -7 11 -1 -1 12 -29 50 -35 47 -11 -6 -25 -2 -25 7 0
5 7 7 16 3 14 -5 15 -3 4 18 -17 32 -20 35 -20 17z"/>
<path d="M1275 1850 c4 -6 1 -17 -5 -25 -10 -12 -7 -22 14 -49 14 -19 26 -38
26 -43 0 -4 18 -32 39 -62 31 -42 40 -49 44 -35 3 13 5 10 6 -9 1 -21 25 -52
102 -130 l102 -102 8 30 c9 27 6 33 -33 67 -24 21 -46 38 -50 38 -5 0 -8 5 -8
10 0 6 -16 28 -35 49 -19 21 -60 71 -89 112 -30 41 -62 82 -70 92 -9 9 -16 20
-16 25 0 21 -13 42 -26 42 -8 0 -12 -5 -9 -10z"/>
<path d="M1240 1777 c0 -9 9 -26 20 -37 11 -11 20 -23 19 -27 -1 -15 115 -167
118 -156 3 9 -53 92 -115 169 -9 12 -18 28 -20 35 -6 23 -22 35 -22 16z"/>
<path d="M1130 1700 c0 -8 -19 -25 -43 -38 -36 -19 -44 -29 -53 -66 l-10 -44
76 37 c41 20 77 37 78 38 2 1 -8 21 -22 45 -14 24 -26 36 -26 28z"/>
<path d="M1936 1690 c-2 -8 -9 -28 -14 -45 -7 -24 -15 -31 -42 -35 -44 -7 -47
-21 -10 -42 17 -9 30 -24 30 -31 0 -16 21 -27 51 -27 11 0 34 -7 50 -16 17 -8
33 -13 35 -11 3 2 -3 21 -13 42 l-18 37 28 22 c39 31 35 45 -13 39 -39 -6 -40
-5 -59 38 -12 27 -22 38 -25 29z"/>
<path d="M960 1686 c0 -5 9 -24 21 -42 l20 -33 -71 -36 c-61 -30 -74 -34 -87
-23 -10 8 -7 -3 8 -29 13 -24 28 -43 32 -43 20 0 107 52 108 65 2 19 4 25 13
47 5 11 -1 32 -18 60 -14 24 -26 39 -26 34z"/>
<path d="M3540 1613 c-48 -59 -77 -88 -151 -151 -38 -32 -45 -42 -38 -60 5
-12 13 -22 18 -22 25 0 271 257 271 283 0 4 -12 7 -27 7 -22 -1 -39 -14 -73
-57z m-40 -99 c0 -17 -22 -14 -28 4 -2 7 3 12 12 12 9 0 16 -7 16 -16z"/>
<path d="M3006 1631 c-16 -30 -21 -33 -52 -28 -40 7 -42 2 -12 -23 20 -16 21
-21 11 -54 -12 -40 -10 -42 27 -21 23 12 27 11 53 -13 l28 -27 -3 40 c-2 22
-6 42 -9 45 -3 3 -10 30 -15 60 l-10 55 -18 -34z"/>
<path d="M3619 1593 c-50 -62 -143 -156 -214 -216 -16 -14 -27 -28 -24 -31 10
-10 152 119 219 200 90 109 94 114 82 114 -6 0 -34 -30 -63 -67z"/>
<path d="M2235 1531 c3 -70 1 -80 -11 -70 -11 9 -15 8 -20 -4 -3 -9 -12 -13
-20 -10 -9 3 -14 -1 -14 -12 0 -12 -5 -15 -20 -10 -11 3 -20 2 -20 -3 0 -4 28
-14 62 -20 34 -6 65 -17 70 -24 6 -10 10 -10 18 2 6 10 10 11 10 3 0 -7 7 -21
16 -31 15 -19 17 -18 40 5 13 13 24 30 24 38 0 22 18 18 25 -6 4 -11 9 -18 12
-15 4 3 11 2 17 -3 19 -15 58 -20 53 -8 -2 7 -15 11 -28 9 -19 -1 -21 0 -9 7
12 9 10 15 -13 39 -32 34 -33 41 -7 92 11 22 17 40 13 40 -5 0 -1 5 7 10 8 5
11 10 5 10 -14 0 -37 -16 -37 -26 0 -5 -7 -18 -14 -29 -12 -17 -14 -17 -14 -2
0 9 5 17 11 17 5 0 7 4 4 10 -4 6 -18 4 -37 -6 l-30 -16 -49 48 -48 47 4 -82z
m145 -87 c0 -8 -5 -12 -10 -9 -6 4 -8 11 -5 16 9 14 15 11 15 -7z"/>
<path d="M3060 1578 c0 -8 9 -14 20 -13 21 1 41 15 22 15 -5 0 -17 3 -26 6
-10 4 -16 1 -16 -8z"/>
<path d="M1216 1568 c4 -12 -26 -41 -119 -115 -69 -54 -126 -100 -126 -103 -1
-3 12 -21 29 -40 16 -19 28 -28 25 -20 -6 17 52 70 147 133 33 22 65 48 71 58
8 14 15 15 30 7 21 -11 18 -2 -9 32 -47 57 -53 63 -48 48z"/>
<path d="M2720 1535 l-35 -34 -42 19 -43 19 21 -41 20 -40 -20 -22 c-32 -34
-27 -48 15 -44 32 2 38 -1 58 -35 24 -40 36 -39 36 2 0 39 12 51 61 59 l44 8
-44 23 -43 23 4 49 c3 27 5 49 4 49 -1 0 -17 -16 -36 -35z"/>
<path d="M1410 1542 c0 -25 214 -219 224 -203 3 5 -6 17 -21 26 -15 10 -66 56
-115 103 -48 47 -88 80 -88 74z"/>
<path d="M4265 1527 c-19 -30 -39 -87 -32 -93 5 -6 67 94 67 109 0 15 -20 6
-35 -16z"/>
<path d="M4292 1463 c-38 -70 -149 -235 -184 -273 -162 -179 -273 -282 -400
-372 -88 -62 -107 -95 -45 -77 17 5 33 7 35 4 2 -2 -15 -9 -38 -15 -41 -11
-42 -12 -21 -26 11 -8 21 -22 21 -30 0 -8 3 -14 6 -14 12 0 168 113 241 174
62 52 70 62 55 70 -9 5 -20 13 -23 18 -3 5 -12 2 -19 -7 -15 -18 -31 -20 -28
-2 2 6 -3 11 -9 9 -7 -1 -13 3 -13 8 0 11 65 8 77 -3 3 -4 18 -7 32 -7 19 0
42 16 82 58 85 88 159 178 152 186 -3 3 -1 6 6 6 7 0 9 5 6 10 -3 6 0 13 8 16
8 3 12 14 10 28 -3 16 0 23 11 23 9 0 16 -5 16 -11 0 -13 35 38 100 145 30 49
46 87 43 96 -4 10 -2 14 4 10 6 -4 14 0 17 8 9 25 7 30 -11 32 -10 1 -34 5
-53 8 l-35 6 -43 -78z m93 -33 c3 -5 -3 -10 -14 -10 -12 0 -21 -6 -21 -12 0
-10 -3 -9 -9 1 -5 7 -14 11 -20 7 -6 -4 -9 -2 -6 6 7 16 61 22 70 8z m-109
-134 c-7 -21 -16 -34 -20 -28 -3 6 -1 23 6 39 6 15 10 35 9 43 -1 13 0 13 8
-1 7 -10 6 -28 -3 -53z m-130 -132 l29 -16 -32 6 c-26 4 -33 2 -38 -15 -4 -11
-9 -19 -11 -16 -5 5 13 57 20 57 2 0 17 -7 32 -16z m-36 -70 c0 -2 -7 -4 -15
-4 -8 0 -15 4 -15 10 0 5 7 7 15 4 8 -4 15 -8 15 -10z m-355 -294 c-3 -5 -11
-10 -16 -10 -6 0 -7 5 -4 10 3 6 11 10 16 10 6 0 7 -4 4 -10z"/>
<path d="M1890 1485 c0 -9 5 -15 11 -13 6 2 11 8 11 13 0 5 -5 11 -11 13 -6 2
-11 -4 -11 -13z"/>
<path d="M660 1432 c-14 -5 -12 -23 5 -42 14 -15 14 -19 1 -29 -13 -11 -12
-18 11 -54 38 -61 127 -178 180 -237 l47 -52 17 34 c10 18 18 29 19 25 0 -4
-7 -22 -16 -39 l-16 -31 77 -74 c42 -40 107 -98 145 -129 62 -50 70 -54 94
-43 14 7 23 17 19 23 -3 6 0 6 7 -1 9 -9 19 -9 34 -2 19 9 19 9 4 -4 -28 -22
-32 -60 -9 -81 19 -17 19 -17 15 1 -5 20 13 79 22 71 2 -3 0 -17 -5 -32 -7
-18 -7 -26 0 -26 6 0 9 -7 5 -15 -3 -8 0 -15 6 -15 6 0 8 -3 4 -7 -7 -8 92
-72 112 -73 7 0 15 7 18 15 4 8 16 15 28 15 21 -1 20 -1 -3 -21 -27 -22 -26
-23 32 -55 15 -8 27 -10 27 -5 0 5 -9 12 -19 16 -13 4 -18 12 -14 21 5 13 10
10 28 -13 13 -15 21 -31 19 -34 -3 -5 129 -63 146 -64 3 -1 14 -6 25 -12 20
-11 212 -73 226 -73 4 0 13 15 19 34 14 44 35 63 44 40 4 -10 2 -22 -4 -28
-12 -12 -13 -53 -2 -60 4 -2 48 -12 97 -20 70 -12 92 -13 104 -3 9 8 12 8 8 1
-11 -19 28 -25 208 -31 209 -7 305 1 305 26 0 9 -5 22 -12 29 -8 8 -8 12 -1
12 6 0 16 -13 23 -30 14 -33 -1 -33 180 1 192 36 476 135 508 176 8 11 12 12
12 4 0 -16 147 62 173 91 20 23 23 60 5 57 -28 -3 -38 2 -38 20 0 16 -17 10
-117 -42 -65 -33 -120 -63 -123 -66 -3 -3 -12 -7 -20 -9 -8 -2 -57 -19 -108
-38 -51 -19 -107 -37 -123 -41 -32 -6 -32 -10 -12 -77 3 -12 1 -16 -6 -12 -6
4 -11 17 -11 29 0 44 -10 47 -95 27 -44 -10 -97 -21 -117 -24 -28 -5 -38 -12
-38 -26 0 -10 -4 -21 -9 -24 -4 -3 -6 6 -3 21 4 22 2 25 -12 20 -10 -4 -31 -7
-47 -7 -16 0 -28 -3 -28 -7 3 -19 -2 -30 -15 -30 -8 0 -12 6 -9 14 4 10 -27
13 -163 13 -151 0 -302 11 -374 26 -18 4 -21 3 -11 -4 9 -6 10 -12 3 -16 -6
-4 -15 2 -21 12 -6 12 -31 22 -78 31 -37 8 -119 30 -182 51 -112 36 -114 36
-119 16 -3 -12 -4 -23 -3 -25 4 -5 -22 -21 -34 -21 -6 0 -16 9 -22 19 -10 16
-9 18 8 14 13 -4 19 0 21 11 0 9 1 20 2 26 1 14 -141 80 -159 74 -9 -4 -15 0
-15 8 0 8 -17 22 -37 32 -21 10 -75 42 -121 72 -83 54 -102 62 -102 44 0 -5
-5 -10 -10 -10 -6 0 -8 10 -5 23 4 17 -4 28 -33 50 -20 15 -50 37 -65 50 -49
38 -224 219 -278 287 -28 36 -55 67 -60 68 -5 2 -9 10 -9 18 0 8 -4 14 -10 14
-5 0 -10 4 -10 10 0 5 -17 36 -37 69 -32 50 -42 59 -65 58 -15 -1 -32 -3 -38
-5z m45 -82 c-3 -5 0 -10 8 -10 8 0 18 -11 21 -25 4 -14 10 -24 14 -23 10 2
62 -24 62 -31 0 -3 -5 -13 -11 -21 -9 -13 -10 -12 -5 2 3 11 1 15 -8 12 -6 -2
-31 16 -55 41 -23 25 -47 43 -52 40 -10 -7 -12 8 -2 18 10 11 35 8 28 -3z
m129 -139 c-8 -9 -22 12 -17 26 6 15 7 14 13 -3 4 -10 6 -21 4 -23z m41 -92
c-4 -5 -11 -9 -16 -9 -6 0 -7 5 -4 10 3 6 1 10 -4 10 -6 0 -11 5 -11 10 0 7 7
7 20 0 11 -6 18 -15 15 -21z m112 -135 c-3 -3 -12 -4 -19 -1 -8 3 -5 6 6 6 11
1 17 -2 13 -5z m71 -31 c-16 -39 -32 -54 -18 -19 12 33 19 46 25 46 3 0 -1
-12 -7 -27z m2312 -378 c0 -8 -4 -15 -10 -15 -5 0 -10 7 -10 15 0 8 5 15 10
15 6 0 10 -7 10 -15z m-1780 -35 c0 -5 -2 -10 -4 -10 -3 0 -8 5 -11 10 -3 6
-1 10 4 10 6 0 11 -4 11 -10z m50 6 c0 -11 -19 -15 -25 -6 -3 5 1 10 9 10 9 0
16 -2 16 -4z m1026 -151 c1 -8 -2 -13 -7 -9 -5 3 -9 12 -9 21 0 19 13 9 16
-12z m-296 -35 c0 -5 -7 -10 -16 -10 -8 0 -12 5 -9 10 3 6 10 10 16 10 5 0 9
-4 9 -10z m94 -11 c-6 -11 -24 -2 -24 11 0 5 7 7 15 4 8 -4 12 -10 9 -15z
m-144 -5 c0 -2 -9 -4 -21 -4 -11 0 -18 4 -14 10 5 8 35 3 35 -6z m87 0 c-3 -3
-12 -4 -19 -1 -8 3 -5 6 6 6 11 1 17 -2 13 -5z"/>
<path d="M1629 1414 c-7 -21 -6 -29 8 -40 41 -32 151 -103 191 -123 37 -19 43
-20 48 -6 10 26 -3 43 -53 69 -26 13 -79 47 -116 75 l-68 51 -10 -26z"/>
<path d="M3644 1409 c-18 -19 -22 -28 -12 -24 14 6 23 -4 42 -44 28 -62 39
-47 20 27 -8 30 -12 58 -8 63 12 21 -14 7 -42 -22z"/>
<path d="M4210 1413 c-8 -3 -19 -12 -24 -20 -4 -8 -42 -60 -83 -114 -41 -55
-72 -103 -69 -106 10 -10 57 40 51 55 -2 7 -1 11 4 7 11 -6 101 111 101 131 0
8 5 14 12 14 6 0 8 3 5 7 -4 3 1 12 11 19 18 14 16 16 -8 7z"/>
<path d="M620 1404 c0 -6 7 -19 15 -30 8 -10 14 -14 14 -9 0 6 -6 19 -14 29
-8 11 -15 15 -15 10z"/>
<path d="M798 1400 c-6 -17 79 -145 135 -204 20 -21 37 -42 37 -46 0 -3 22
-27 49 -54 72 -71 81 -47 10 27 -52 55 -166 198 -210 267 -12 18 -17 21 -21
10z"/>
<path d="M3269 1371 c-30 -21 -68 -45 -86 -54 -24 -13 -30 -22 -26 -37 8 -30
31 -25 116 30 77 50 82 55 71 84 -9 22 -14 21 -75 -23z"/>
<path d="M1255 1353 c-44 -23 -74 -53 -96 -95 -20 -39 -25 -73 -10 -64 4 3 6
-6 3 -19 -2 -15 0 -25 7 -25 7 0 10 -4 7 -9 -8 -12 36 -64 76 -92 l30 -22 48
48 c32 31 53 45 62 40 7 -5 -3 8 -21 28 -31 33 -61 51 -47 29 3 -5 -15 -31
-40 -58 l-45 -49 -19 25 c-44 56 4 152 115 227 36 25 97 23 128 -4 l22 -18
-20 24 c-11 12 -32 29 -47 37 -36 19 -116 17 -153 -3z m-63 -85 c-7 -7 -12 -8
-12 -2 0 14 12 26 19 19 2 -3 -1 -11 -7 -17z m-21 -41 c-10 -9 -11 -8 -5 6 3
10 9 15 12 12 3 -3 0 -11 -7 -18z"/>
<path d="M2266 1331 c1 -9 6 -29 9 -46 l7 -30 13 26 c18 34 13 64 -12 65 -14
1 -19 -4 -17 -15z"/>
<path d="M3314 1311 c-52 -39 -159 -97 -251 -136 -41 -18 -71 -35 -66 -38 21
-13 279 117 346 174 42 37 22 37 -29 0z"/>
<path d="M1665 1306 c33 -27 159 -101 190 -112 15 -5 17 -4 9 5 -12 13 -164
101 -175 101 -4 0 -9 7 -13 15 -3 8 -13 15 -23 15 -14 0 -11 -6 12 -24z"/>
<path d="M3510 1285 c-40 -40 -42 -45 -22 -45 13 0 36 -7 51 -15 16 -8 46 -13
69 -12 33 2 39 0 32 -12 -6 -11 1 -19 29 -32 40 -18 105 -91 93 -105 -4 -4 12
7 35 25 24 18 46 38 50 44 4 7 -1 6 -10 -2 -15 -12 -22 -8 -60 34 -23 27 -48
67 -54 89 l-13 41 6 -37 c3 -21 2 -38 -1 -38 -3 0 -41 18 -85 40 -58 29 -78
44 -74 55 9 23 1 18 -46 -30z m195 -93 c-8 -8 -25 10 -19 20 4 6 9 5 15 -3 4
-7 6 -15 4 -17z"/>
<path d="M1466 1278 c-3 -7 -7 -24 -10 -38 l-5 -25 20 24 c10 13 19 29 19 37
0 17 -19 18 -24 2z"/>
<path d="M3035 1244 c-55 -24 -115 -46 -133 -50 -22 -4 -32 -11 -30 -22 3 -18
-31 -30 -41 -14 -4 6 -35 5 -86 -3 -89 -14 -184 -24 -231 -25 -28 0 -31 -3
-26 -25 5 -31 32 -33 32 -3 0 12 3 18 8 14 4 -4 7 -13 7 -19 0 -9 24 -11 82
-9 110 5 199 24 195 42 -2 10 0 11 11 2 14 -12 82 1 102 19 5 5 17 9 27 9 10
0 21 7 24 15 4 8 13 15 21 15 8 0 11 -5 7 -12 -6 -10 -4 -10 7 0 7 6 20 12 29
12 8 0 20 10 25 22 12 26 42 40 32 15 -6 -15 -3 -15 28 0 32 15 40 41 9 29 -8
-3 -14 -1 -14 3 0 5 6 11 13 14 6 2 10 6 7 9 -3 2 -50 -15 -105 -38z m-115
-85 c0 -5 -7 -9 -15 -9 -8 0 -15 7 -15 15 0 9 6 12 15 9 8 -4 15 -10 15 -15z"/>
<path d="M1895 1250 c-4 -11 -4 -24 -1 -29 9 -14 133 -61 161 -61 14 0 25 -4
25 -9 0 -14 43 -21 57 -9 10 8 13 7 13 -4 0 -22 107 -43 128 -25 13 10 14 9 7
-2 -6 -11 -4 -13 8 -8 9 3 17 2 19 -3 2 -5 38 -12 81 -16 79 -7 79 -7 75 17
-4 28 -29 37 -111 38 -44 1 -57 -2 -52 -11 4 -7 0 -5 -8 4 -8 10 -45 24 -87
33 -73 15 -190 53 -267 86 -41 17 -42 17 -48 -1z"/>
<path d="M1545 1218 c3 -7 -15 -47 -40 -88 -34 -58 -41 -77 -33 -88 12 -14 -4
-32 -29 -32 -7 0 -19 -13 -28 -30 -9 -16 -23 -30 -32 -30 -20 0 -11 -9 39 -39
25 -15 36 -18 33 -9 -3 8 13 42 35 77 l40 62 50 -28 c48 -27 61 -45 40 -58 -6
-4 -8 -11 -5 -16 4 -5 2 -9 -3 -9 -4 0 -18 -18 -31 -40 -12 -22 -30 -40 -39
-40 -14 0 -13 -2 3 -13 62 -43 75 -49 70 -35 -6 16 144 251 170 265 15 9 10
15 -33 41 -41 25 -49 27 -45 12 3 -10 -11 -42 -31 -75 l-36 -56 -28 17 c-16 9
-38 24 -50 33 l-22 16 25 37 c14 20 25 44 25 52 0 9 11 18 25 22 25 6 26 7 6
20 -11 8 -24 14 -28 13 -21 -4 -33 2 -33 16 0 8 -4 15 -10 15 -5 0 -7 -6 -5
-12z"/>
<path d="M3460 1200 c8 -6 23 -15 33 -21 16 -9 17 -8 5 10 -7 12 -22 21 -33
21 -17 0 -18 -2 -5 -10z"/>
<path d="M1882 1188 c6 -16 110 -58 123 -50 5 3 2 8 -5 10 -8 3 -39 15 -68 28
-32 14 -52 19 -50 12z"/>
<path d="M3313 1149 c-48 -30 -80 -56 -77 -63 3 -8 18 0 41 22 l37 34 18 -21
c15 -19 20 -20 40 -10 23 12 23 12 5 -9 -18 -20 -18 -22 31 -94 27 -40 59 -90
70 -111 l20 -38 28 25 c27 23 28 25 12 43 -9 10 -25 34 -36 53 -10 19 -40 70
-67 113 -26 43 -44 84 -41 92 3 8 4 15 3 15 -1 0 -39 -23 -84 -51z"/>
<path d="M3925 1074 c-48 -47 -122 -113 -164 -146 -42 -34 -75 -65 -73 -70 1
-5 -1 -7 -6 -4 -7 4 -60 -25 -91 -50 -1 -1 0 -8 4 -14 6 -10 65 24 73 42 2 4
8 8 14 8 16 0 113 81 110 92 -1 5 2 7 8 3 6 -3 63 46 128 109 67 66 110 116
101 116 -9 0 -56 -39 -104 -86z"/>
<path d="M2030 1125 c0 -6 33 -19 73 -29 42 -10 32 9 -12 22 -42 13 -61 15
-61 7z"/>
<path d="M2873 1108 c-18 -6 -33 -15 -33 -21 0 -5 8 -6 18 -2 9 3 29 9 45 12
15 3 27 9 27 14 0 11 -15 10 -57 -3z"/>
<path d="M2146 1090 c5 -5 32 -12 59 -15 l50 -5 -40 14 c-48 17 -83 20 -69 6z"/>
<path d="M2705 1074 c-44 -7 -97 -13 -117 -13 -21 -1 -38 -6 -38 -12 0 -11 53
-7 185 13 73 11 122 28 75 26 -14 0 -61 -7 -105 -14z"/>
<path d="M3175 1070 c-3 -5 -1 -10 4 -10 6 0 11 5 11 10 0 6 -2 10 -4 10 -3 0
-8 -4 -11 -10z"/>
<path d="M3260 1061 c0 -11 4 -22 9 -25 4 -3 6 6 3 19 -5 30 -12 33 -12 6z"/>
<path d="M2306 1061 c12 -13 214 -25 214 -13 0 5 -26 10 -57 10 -32 1 -83 5
-113 8 -40 5 -52 3 -44 -5z"/>
<path d="M3115 1045 c-16 -7 -23 -14 -14 -14 24 -1 145 -270 131 -292 -9 -14
-4 -14 39 4 27 12 45 23 40 26 -4 4 -32 64 -62 134 -42 100 -59 129 -76 133
-13 4 -20 10 -17 15 7 12 -6 11 -41 -6z"/>
<path d="M1090 1025 c17 -21 176 -155 184 -155 20 0 0 31 -41 62 -27 20 -64
53 -82 72 -19 20 -44 36 -54 36 -16 0 -17 -3 -7 -15z"/>
<path d="M1975 993 c-63 -16 -122 -98 -131 -181 -8 -73 15 -106 120 -169 49
-30 90 -52 92 -50 2 2 -7 14 -21 27 -28 26 -32 40 -11 40 23 0 75 49 97 92 25
50 34 124 19 163 -15 40 -26 19 -29 -58 -1 -34 -6 -66 -12 -71 -5 -6 -8 5 -6
28 3 52 -19 59 -28 9 -9 -55 -46 -124 -78 -147 l-27 -20 -23 22 c-53 53 -5
249 74 305 22 15 22 16 4 15 -11 0 -29 -3 -40 -5z m-78 -138 c-31 -36 -44 -45
-31 -22 11 20 47 57 55 57 4 0 -7 -16 -24 -35z"/>
<path d="M2060 970 c13 -13 20 -33 20 -60 0 -22 4 -40 10 -40 15 0 6 100 -11
111 -27 17 -40 10 -19 -11z"/>
<path d="M2878 968 c-31 -8 -36 -13 -29 -27 19 -35 91 -292 85 -303 -4 -6 1
-8 12 -5 11 3 55 16 100 28 l81 21 1 42 c1 30 -1 37 -8 26 -5 -8 -10 -23 -10
-33 0 -11 -16 -25 -42 -37 -52 -23 -68 -25 -68 -6 0 8 -6 21 -12 28 -7 7 -14
31 -15 53 0 22 -7 54 -14 70 -7 17 -11 36 -10 43 1 6 -3 12 -8 12 -5 0 -9 23
-8 50 1 28 -2 50 -8 49 -5 -1 -27 -6 -47 -11z m51 -127 c7 -5 9 -11 5 -14 -5
-3 -15 1 -22 9 -14 16 -5 18 17 5z"/>
<path d="M2227 933 c19 -4 21 -8 13 -28 -5 -12 -6 -26 -3 -29 3 -3 0 -13 -7
-21 -8 -9 -15 -52 -18 -97 -7 -113 14 -152 88 -164 24 -4 24 -3 6 11 -26 20
-31 91 -16 214 10 81 16 101 29 102 28 2 -42 17 -79 16 -20 0 -26 -2 -13 -4z"/>
<path d="M2633 918 c-9 -12 -28 -95 -37 -165 -2 -17 -7 -38 -11 -45 -3 -7 0
-5 8 5 9 10 18 46 22 80 11 95 18 97 53 13 18 -42 32 -80 32 -86 0 -5 -21 -10
-47 -10 -25 0 -43 -3 -40 -7 4 -4 32 -5 62 -4 53 2 55 2 55 -23 0 -14 4 -26 9
-26 14 0 7 -40 -9 -50 -8 -5 -10 -10 -4 -10 6 0 14 3 18 7 4 4 27 6 53 4 43
-3 45 -2 30 14 -10 9 -17 21 -17 26 0 6 -5 7 -12 3 -7 -4 -8 -3 -4 5 7 11 0
34 -64 200 -29 75 -34 81 -60 81 -15 0 -32 -6 -37 -12z"/>
<path d="M2407 912 c9 -5 9 -35 2 -117 -11 -130 -23 -181 -47 -195 -14 -9 -13
-10 8 -8 19 2 26 11 31 33 4 17 7 22 8 12 2 -28 24 -15 44 25 12 24 20 71 24
140 3 57 11 106 17 110 6 4 -14 8 -44 8 -30 0 -50 -4 -43 -8z"/>
<path d="M1309 851 c10 -19 157 -118 182 -123 8 -2 16 -5 19 -8 16 -17 62 -40
70 -35 6 3 10 2 10 -4 0 -12 129 -73 144 -68 6 2 16 -2 21 -9 10 -12 195 -74
262 -89 28 -5 32 -4 27 9 -3 9 -12 16 -19 16 -7 0 -70 19 -141 42 -71 23 -135
42 -141 41 -7 0 -13 3 -13 7 0 4 -15 13 -32 21 -53 21 -161 73 -193 93 -16 11
-67 43 -112 72 -46 30 -85 54 -88 54 -3 0 -1 -8 4 -19z"/>
<path d="M3423 711 c-72 -36 -132 -72 -132 -79 -1 -7 -6 -10 -11 -7 -20 12
-222 -66 -208 -81 6 -5 156 46 223 75 91 40 230 113 240 125 6 7 13 14 18 14
7 2 11 12 5 16 -1 2 -62 -27 -135 -63z"/>
<path d="M1225 741 c-3 -5 -1 -12 4 -15 5 -3 11 1 15 9 6 16 -9 21 -19 6z"/>
<path d="M3590 731 c0 -6 4 -13 10 -16 6 -3 7 1 4 9 -7 18 -14 21 -14 7z"/>
<path d="M2582 673 c1 -7 -14 -47 -32 -83 -6 -12 1 -14 39 -11 38 3 42 5 23
12 -20 8 -22 13 -16 49 4 27 3 40 -5 40 -6 0 -10 -3 -9 -7z"/>
<path d="M2996 545 c-27 -8 -80 -19 -118 -26 -37 -7 -68 -16 -68 -20 0 -5 -7
-6 -15 -3 -24 10 -106 -6 -99 -18 4 -7 29 -8 68 -4 78 9 249 46 256 55 3 4 14
13 25 19 26 15 12 14 -49 -3z"/>
<path d="M2065 520 c-3 -5 -1 -10 4 -10 6 0 11 5 11 10 0 6 -2 10 -4 10 -3 0
-8 -4 -11 -10z"/>
<path d="M2090 510 c0 -13 35 -21 96 -23 27 -1 52 -6 56 -11 3 -5 99 -11 212
-14 189 -4 206 -3 206 12 0 15 -8 16 -72 10 -40 -4 -77 -7 -83 -8 -25 -1 -209
17 -299 30 -118 17 -116 17 -116 4z"/>
</g>
</svg>
