<?xml version="1.0" standalone="no"?>
<!DOCTYPE svg PUBLIC "-//W3C//DTD SVG 20010904//EN"
 "http://www.w3.org/TR/2001/REC-SVG-20010904/DTD/svg10.dtd">
<svg version="1.0" xmlns="http://www.w3.org/2000/svg"
 width="700.000000pt" height="700.000000pt" viewBox="0 0 700.000000 700.000000"
 preserveAspectRatio="xMidYMid meet">

<g transform="translate(0.000000,700.000000) scale(0.100000,-0.100000)"
fill="#000000" stroke="none">
<path d="M3435 6986 c-57 -22 -92 -45 -124 -81 -17 -20 -31 -40 -31 -45 0 -17
-25 -11 -37 9 -7 11 -33 34 -59 52 -54 37 -140 49 -213 29 -51 -13 -151 -106
-151 -139 0 -32 -18 -34 -51 -6 -56 46 -90 58 -165 58 -60 0 -79 -4 -117 -26
-59 -35 -102 -88 -116 -143 -6 -24 -14 -44 -16 -44 -3 0 -24 12 -48 28 -37 24
-51 27 -127 27 -92 0 -112 -8 -178 -69 -32 -30 -72 -117 -72 -157 0 -16 -4
-19 -17 -14 -70 30 -103 37 -154 32 -125 -11 -217 -102 -224 -225 -2 -30 -6
-56 -8 -59 -3 -2 -15 1 -27 7 -12 7 -52 12 -89 12 -95 0 -158 -36 -213 -121
-25 -40 -28 -54 -28 -123 l0 -79 -49 7 c-73 10 -142 -11 -194 -57 -63 -55 -90
-116 -84 -193 2 -34 7 -71 12 -83 7 -20 4 -22 -50 -22 -103 0 -188 -60 -233
-164 -18 -43 -15 -122 8 -169 11 -22 17 -44 15 -48 -2 -4 -25 -10 -50 -13
-140 -20 -236 -156 -205 -292 6 -26 20 -60 30 -76 28 -38 25 -46 -16 -54 -51
-9 -109 -48 -144 -97 -17 -22 -30 -45 -30 -50 0 -4 99 -8 220 -8 l219 0 31 66
c16 36 30 69 30 73 0 11 147 299 168 329 10 15 21 34 25 42 8 20 148 220 220
314 129 169 375 407 565 548 194 144 473 307 632 368 19 7 58 23 85 35 130 57
448 144 640 174 606 97 1229 11 1773 -245 51 -24 94 -44 97 -44 8 0 223 -125
290 -168 258 -167 532 -417 732 -667 184 -230 319 -458 442 -750 l29 -70 221
-3 c246 -3 243 -4 190 61 -37 45 -92 82 -137 91 -42 10 -47 21 -23 47 20 22
41 90 41 134 0 125 -114 245 -232 245 -32 0 -34 7 -13 57 33 78 11 196 -49
261 -36 41 -111 73 -171 73 -56 1 -76 12 -56 32 6 6 11 40 11 77 1 154 -123
264 -276 246 l-50 -6 -1 79 c0 71 -3 83 -32 124 -31 45 -72 82 -119 107 -30
15 -160 16 -175 1 -24 -24 -37 -11 -37 34 0 171 -178 290 -338 226 -65 -26
-62 -26 -62 3 0 76 -60 165 -138 203 -46 22 -61 25 -127 21 -60 -4 -81 -10
-109 -31 -19 -15 -38 -27 -43 -27 -5 0 -15 21 -22 48 -16 54 -67 114 -126 145
-30 15 -58 21 -110 21 -74 -1 -109 -13 -164 -59 -33 -28 -51 -26 -51 6 0 34
-99 126 -150 139 -97 26 -218 -9 -268 -77 l-21 -28 -50 56 c-28 31 -65 62 -83
68 -18 7 -41 17 -50 22 -23 12 -86 10 -123 -5z"/>
<path d="M3265 6494 c-16 -2 -75 -9 -130 -15 -237 -26 -479 -87 -735 -184
-100 -38 -315 -141 -385 -184 -182 -112 -254 -161 -365 -247 -148 -115 -326
-288 -448 -434 -96 -116 -286 -388 -327 -470 -9 -19 -37 -75 -62 -125 -24 -49
-48 -98 -53 -107 -13 -23 -50 -121 -50 -130 0 -9 5574 -11 5582 -2 3 3 0 17
-7 32 -7 15 -28 61 -45 102 -37 86 -124 252 -151 292 -11 14 -19 29 -19 32 0
14 -147 225 -219 316 -145 182 -425 450 -586 560 -20 14 -49 35 -65 48 -15 12
-30 22 -33 22 -3 0 -34 19 -69 43 -84 55 -93 60 -233 131 -308 157 -621 256
-955 302 -108 15 -570 28 -645 18z m-1013 -822 c44 -18 109 -84 129 -130 22
-51 26 -210 8 -273 -16 -53 -63 -105 -120 -134 -44 -23 -60 -25 -184 -25 -101
0 -135 3 -135 13 -3 192 1 551 6 559 9 14 258 5 296 -10z m376 -274 l2 -288
-65 0 -65 0 0 283 c0 156 3 287 7 291 4 4 32 6 63 4 l55 -3 3 -287z m470 62
l2 -226 -29 -45 c-41 -66 -101 -93 -187 -86 -108 8 -179 72 -172 155 3 35 5
37 42 40 58 5 86 -5 86 -30 0 -49 69 -78 104 -42 14 13 16 48 16 228 0 156 3
215 12 224 8 8 34 12 68 10 l55 -3 3 -225z m368 218 c10 -15 185 -529 187
-548 2 -12 -12 -16 -64 -18 -73 -3 -68 -8 -95 83 l-9 30 -85 0 -84 0 -7 -30
c-18 -81 -23 -85 -94 -85 -75 0 -76 1 -44 88 11 31 25 71 29 87 25 87 127 374
139 389 16 19 116 23 127 4z m411 0 c9 -15 51 -130 63 -173 13 -48 65 -193 71
-199 3 -3 21 43 42 102 71 208 89 257 99 270 15 17 142 16 157 -2 8 -9 11 -94
9 -287 l-3 -274 -67 -3 -68 -3 -1 158 c0 180 2 181 -68 -12 -22 -60 -43 -118
-46 -127 -5 -13 -18 -18 -50 -18 -24 0 -47 5 -50 10 -8 14 -73 191 -91 252 -8
26 -18 49 -22 52 -4 2 -7 -66 -7 -152 l0 -157 -67 -3 -68 -3 0 285 c0 218 3
286 13 289 27 11 146 7 154 -5z m681 -281 l2 -288 -67 3 -68 3 -3 274 c-2 198
1 277 9 288 9 10 29 13 68 11 l56 -3 3 -288z m265 241 c44 -68 118 -191 147
-245 13 -24 26 -43 29 -43 3 0 4 70 3 155 -3 112 0 160 8 170 8 9 30 15 55 15
80 0 75 21 75 -297 l0 -284 -66 3 -67 3 -101 169 -101 170 -3 -173 -2 -172
-68 3 -67 3 -3 274 c-2 193 1 278 9 287 7 9 32 14 65 14 l53 0 34 -52z"/>
<path d="M2085 5569 c-3 -8 -4 -91 -3 -184 l3 -169 55 3 c30 1 62 7 71 11 35
20 53 64 57 146 7 139 -24 191 -122 201 -43 4 -57 2 -61 -8z"/>
<path d="M3396 5470 c-20 -57 -36 -107 -36 -117 0 -9 16 -13 45 -13 25 0 45 1
45 3 0 1 -11 34 -24 72 -14 40 -27 64 -30 55z"/>
<path d="M204 4369 c-2 -3 8 -16 22 -28 29 -26 25 -37 -18 -46 -18 -4 -51 -28
-78 -54 -103 -103 -104 -242 -3 -348 18 -20 33 -39 33 -42 0 -3 -20 -18 -45
-33 -43 -26 -95 -93 -95 -122 0 -8 -5 -18 -10 -21 -12 -8 -13 -89 -2 -113 5
-9 19 -38 31 -63 12 -25 40 -59 61 -75 22 -16 40 -32 40 -37 0 -4 -18 -23 -40
-43 -43 -39 -80 -122 -80 -179 0 -62 37 -141 87 -185 25 -22 51 -40 58 -40 7
0 18 -7 25 -15 10 -12 9 -16 -3 -21 -27 -10 -77 -98 -83 -147 -4 -25 -3 -62 0
-81 l7 -36 3388 0 c3081 0 3389 1 3395 16 23 61 -16 206 -63 236 -28 17 -26
36 3 48 42 16 98 73 122 125 45 96 20 212 -59 282 -21 18 -37 36 -37 40 0 4
14 17 31 28 34 22 89 95 89 119 0 8 5 18 10 21 6 3 10 33 10 66 0 33 -4 59
-10 59 -5 0 -10 7 -10 15 0 39 -75 126 -121 140 -27 9 -24 22 11 52 66 55 98
178 67 258 -30 76 -94 141 -149 152 -33 7 -36 23 -8 48 11 10 20 21 20 24 0 8
-6591 8 -6596 0z m1466 -412 c0 -2 16 -48 36 -103 20 -54 40 -112 44 -129 11
-37 73 -216 81 -230 5 -9 12 -32 35 -113 5 -19 24 -5 24 18 0 17 15 64 40 125
5 11 11 29 13 40 3 11 22 65 42 120 20 55 45 127 56 160 11 33 25 73 31 88
l11 28 126 -3 126 -3 3 -434 c2 -318 -1 -437 -9 -448 -9 -10 -34 -13 -103 -11
l-91 3 -5 245 c-4 197 -7 239 -16 215 -12 -32 -46 -125 -89 -245 -15 -41 -39
-106 -54 -145 l-27 -70 -71 -3 c-61 -2 -71 0 -76 15 -3 10 -22 63 -42 118 -20
55 -56 155 -80 223 -24 68 -46 126 -49 129 -3 4 -6 -99 -6 -228 0 -170 -3
-238 -12 -247 -7 -7 -43 -12 -93 -12 -50 0 -86 5 -93 12 -9 9 -12 121 -12 443
0 238 3 435 7 438 6 7 253 10 253 4z m1015 -9 c3 -7 6 -150 8 -318 2 -270 4
-309 20 -337 22 -41 69 -66 127 -67 60 -1 106 19 130 59 19 31 20 49 20 342 0
227 3 312 12 321 18 18 182 16 197 -2 9 -11 11 -100 9 -333 -3 -310 -4 -319
-27 -370 -29 -64 -94 -126 -169 -161 -50 -23 -70 -26 -167 -27 -103 0 -114 2
-176 31 -78 37 -130 86 -161 152 -22 45 -23 58 -26 371 -1 179 -1 330 2 338 7
18 194 19 201 1z m1118 -9 c77 -26 121 -58 158 -117 26 -41 29 -55 29 -127 0
-71 -3 -86 -27 -122 -14 -23 -37 -47 -50 -54 -24 -13 -31 -29 -13 -29 12 0 54
-42 77 -77 9 -14 18 -66 23 -142 7 -96 13 -126 29 -149 17 -24 18 -32 8 -46
-10 -14 -28 -16 -106 -14 -126 4 -132 11 -141 173 -8 150 -14 158 -136 165
-47 3 -88 3 -90 1 -2 -2 -4 -75 -4 -161 0 -108 -4 -160 -12 -168 -7 -7 -45
-12 -99 -12 -70 0 -88 3 -93 16 -8 21 -8 869 1 877 3 4 91 7 195 7 165 0 197
-3 251 -21z m774 9 c6 -7 18 -38 28 -68 10 -30 28 -84 40 -120 12 -36 27 -81
33 -100 7 -19 53 -156 103 -303 73 -216 88 -271 78 -283 -9 -11 -33 -14 -108
-12 l-95 3 -29 93 -28 92 -117 0 c-64 0 -122 -4 -128 -8 -6 -4 -15 -23 -19
-42 -4 -19 -16 -59 -27 -87 l-19 -53 -93 0 c-69 0 -97 4 -105 14 -10 12 7 70
79 283 50 147 95 282 100 298 8 29 26 84 79 233 l26 72 96 0 c65 0 100 -4 106
-12z m577 -4 c3 -9 6 -92 6 -185 l0 -170 151 3 151 3 -1 168 c-1 116 2 173 10
183 15 18 179 20 197 2 17 -17 17 -859 0 -876 -8 -8 -45 -12 -100 -12 -78 0
-88 2 -98 21 -7 12 -10 78 -9 177 l2 157 -152 3 -151 3 0 -170 c0 -132 -3
-171 -14 -180 -9 -8 -46 -11 -103 -9 l-88 3 -3 435 c-1 239 0 441 3 448 3 8
32 12 99 12 76 0 95 -3 100 -16z m-4504 -329 c0 -8 5 -26 12 -40 10 -22 17
-25 60 -25 58 0 62 -15 13 -48 -39 -25 -41 -34 -20 -85 8 -20 15 -39 15 -42 0
-13 -22 -3 -53 25 -19 17 -39 30 -43 30 -5 -1 -25 -14 -44 -30 -41 -36 -56
-27 -35 23 21 50 20 51 -25 82 -22 15 -40 32 -40 36 0 5 25 9 55 9 51 0 55 2
61 28 10 40 24 63 35 57 5 -4 9 -12 9 -20z m5811 -20 l11 -45 49 0 c59 0 64
-15 14 -48 -40 -25 -41 -29 -20 -79 21 -50 6 -59 -35 -23 -43 36 -50 36 -80 5
-13 -14 -32 -25 -42 -25 -17 0 -17 2 -3 36 21 52 19 61 -20 86 -50 33 -45 48
15 48 l50 0 12 45 c7 25 18 45 25 45 7 0 18 -20 24 -45z"/>
<path d="M3560 3679 l0 -102 92 5 c81 5 93 8 109 29 29 38 25 110 -7 143 -25
24 -33 26 -110 26 l-84 0 0 -101z"/>
<path d="M4466 3618 c-3 -7 -12 -40 -21 -73 -9 -33 -21 -71 -26 -84 -5 -13 -7
-26 -4 -29 7 -7 125 -9 125 -2 0 14 -61 200 -66 200 -2 0 -6 -6 -8 -12z"/>
<path d="M266 2398 c-7 -13 -16 -45 -19 -73 -16 -137 61 -248 191 -275 28 -7
52 -13 52 -15 0 -2 -11 -23 -25 -46 -83 -146 38 -347 211 -351 34 0 44 -4 44
-17 0 -9 -5 -22 -12 -29 -8 -8 -12 -41 -12 -85 1 -108 42 -173 139 -221 39
-19 69 -26 112 -26 l58 0 -3 -72 c-5 -110 32 -180 124 -234 41 -24 52 -26 133
-22 l89 4 1 -57 c1 -98 54 -184 139 -225 48 -23 155 -24 199 -2 37 19 43 15
43 -25 0 -80 48 -157 126 -203 60 -35 174 -38 229 -5 20 11 39 21 43 21 5 0
13 -20 20 -44 28 -107 133 -186 246 -186 53 0 71 5 120 35 58 35 76 37 76 9 0
-18 50 -92 77 -114 93 -77 260 -66 337 21 26 29 46 31 46 5 0 -25 75 -99 124
-122 99 -46 216 -19 289 67 34 39 57 50 57 26 0 -19 48 -62 98 -87 55 -29 120
-36 177 -20 54 15 132 81 152 127 7 18 15 33 16 33 2 0 21 -16 42 -36 52 -48
98 -65 170 -66 106 0 188 54 232 155 15 32 43 52 43 29 0 -5 24 -21 54 -35
103 -51 219 -29 291 55 39 46 65 97 65 127 0 26 10 26 55 0 55 -33 169 -30
229 5 76 44 123 116 130 200 2 23 4 42 5 44 1 1 16 -5 34 -15 45 -23 150 -23
202 2 90 43 155 156 141 244 l-6 37 90 -4 c84 -4 92 -3 137 24 56 33 76 54
104 111 22 44 29 118 16 166 l-7 27 60 0 c111 0 197 56 243 159 15 35 18 58
14 109 -3 35 -10 69 -16 75 -24 24 -10 35 52 39 81 5 139 42 184 118 29 47 33
63 33 122 0 53 -5 77 -25 112 l-25 45 37 6 c86 15 148 57 186 129 26 49 30
162 8 214 l-13 32 -177 0 -176 0 -29 -73 c-99 -245 -261 -520 -439 -742 -260
-325 -566 -584 -922 -781 -174 -97 -394 -192 -560 -241 -110 -33 -314 -84
-375 -93 -36 -5 -114 -18 -175 -27 -160 -25 -596 -24 -755 1 -63 10 -137 22
-165 26 -183 26 -495 122 -705 217 -104 47 -160 76 -320 166 -253 142 -626
465 -825 717 -184 232 -326 473 -451 762 l-29 67 -172 1 c-168 0 -173 -1 -187
-22z"/>
<path d="M710 2418 c0 -21 72 -176 166 -358 26 -51 151 -245 203 -315 176
-236 384 -448 611 -622 140 -106 407 -267 549 -330 31 -14 74 -33 96 -43 64
-28 262 -96 360 -124 500 -142 1085 -144 1595 -5 93 25 262 80 275 89 6 4 28
13 50 20 46 14 317 145 387 187 114 68 148 90 228 147 324 228 665 594 844
906 99 173 184 346 210 428 l7 22 -2790 0 c-1535 0 -2791 -1 -2791 -2z m775
-209 l35 -31 32 31 c35 34 43 37 54 20 3 -6 -6 -21 -22 -34 l-28 -22 295 4
c1385 19 1921 19 3163 -1 l359 -6 -21 23 c-22 23 -29 47 -14 47 4 0 23 -13 42
-29 l35 -29 33 29 c31 28 52 31 52 8 0 -6 -12 -21 -27 -34 l-28 -25 28 -25
c50 -44 22 -65 -30 -21 l-28 24 -28 -24 c-30 -25 -57 -31 -57 -13 0 6 10 19
23 30 22 19 15 19 -648 12 -745 -9 -1878 -7 -2643 5 -276 4 -502 5 -502 2 0
-2 12 -14 27 -25 36 -29 23 -54 -15 -29 -15 10 -32 24 -38 33 -10 13 -17 11
-49 -18 -27 -23 -41 -29 -48 -22 -8 8 -3 20 18 41 l29 30 -28 29 c-16 16 -25
34 -22 40 10 15 11 15 51 -20z m-153 -16 c17 -15 19 -15 36 0 19 17 42 23 42
10 0 -3 -7 -15 -17 -25 -15 -17 -15 -19 0 -36 10 -10 17 -22 17 -25 0 -13 -23
-7 -42 10 -17 15 -19 15 -36 0 -19 -17 -42 -23 -42 -10 0 3 7 15 17 25 15 17
15 19 0 36 -10 10 -17 22 -17 25 0 13 23 7 42 -10z m4237 0 c9 -17 10 -17 28
0 11 9 25 17 31 17 17 0 15 -28 -4 -38 -14 -8 -14 -10 0 -21 19 -16 21 -41 4
-41 -6 0 -19 7 -29 16 -17 15 -19 15 -34 0 -9 -9 -21 -16 -26 -16 -13 0 -11
24 3 38 9 9 9 15 0 24 -7 7 -12 18 -12 25 0 19 27 16 39 -4z m-4371 -5 c9 -9
15 -9 24 0 20 20 25 14 25 -28 0 -42 -5 -48 -25 -28 -9 9 -15 9 -24 0 -7 -7
-16 -12 -20 -12 -13 0 -9 28 5 34 10 5 10 7 0 12 -14 6 -18 34 -5 34 4 0 13
-5 20 -12z m4552 -18 c-13 -8 -13 -11 -1 -19 7 -5 10 -14 6 -20 -4 -8 -11 -9
-19 -2 -7 6 -21 8 -32 5 -18 -5 -21 -1 -21 26 0 28 3 31 23 26 13 -4 26 -1 30
5 4 8 9 8 18 -1 8 -8 7 -13 -4 -20z m-4290 -10 c0 -5 -11 -10 -24 -10 -14 0
-28 5 -31 10 -4 6 7 10 24 10 17 0 31 -4 31 -10z m4070 0 c0 -5 -13 -10 -30
-10 -16 0 -30 5 -30 10 0 6 14 10 30 10 17 0 30 -4 30 -10z m-3512 -398 l3
-63 51 3 51 3 1 60 1 60 40 0 40 0 0 -160 0 -160 -40 0 -40 0 -1 60 -1 60 -49
0 -49 0 -3 -62 -3 -63 -39 0 -40 0 0 158 c0 87 3 162 7 166 4 4 21 6 38 4 30
-3 30 -4 33 -66z m418 3 c12 -33 24 -67 27 -75 13 -34 57 -176 57 -183 0 -5
-19 -7 -42 -5 -34 2 -44 7 -46 23 -5 29 -26 42 -64 37 -27 -3 -37 -10 -45 -33
-10 -24 -17 -29 -47 -29 -19 0 -37 4 -40 8 -2 4 15 66 39 137 67 201 59 187
102 183 37 -3 39 -5 59 -63z m315 27 c33 -36 37 -76 13 -110 -14 -20 -14 -24
0 -44 9 -12 16 -41 16 -65 0 -23 5 -45 10 -48 19 -12 -1 -25 -40 -25 -42 0
-50 11 -50 65 0 38 -19 58 -51 53 -20 -3 -22 -9 -23 -58 l-1 -55 -42 -3 -43
-3 0 159 c0 87 3 162 8 166 4 4 44 6 90 4 80 -3 85 -4 113 -36z m277 22 c34
-23 56 -72 41 -90 -18 -22 -57 -17 -74 10 -25 38 -47 41 -72 11 -23 -26 -31
-90 -17 -141 8 -32 46 -49 73 -34 30 15 23 44 -12 48 -23 3 -27 8 -27 33 l0
29 70 0 70 0 0 -70 c0 -69 -1 -71 -32 -90 -72 -44 -145 -34 -198 26 -28 33
-30 39 -30 121 l0 85 39 39 c35 36 43 39 93 39 32 0 62 -6 76 -16z m270 -34
c16 -47 47 -141 75 -222 8 -25 13 -49 10 -52 -4 -3 -22 -6 -40 -6 -29 0 -36 5
-47 31 -12 28 -19 32 -51 33 -34 1 -40 -3 -52 -31 -12 -30 -18 -33 -54 -33
-40 0 -41 0 -34 33 3 17 11 43 17 57 16 36 23 58 43 125 32 104 41 117 82 113
33 -3 38 -7 51 -48z m416 40 c25 -9 66 -63 66 -87 0 -6 -9 -15 -21 -18 -28 -9
-69 2 -69 20 0 19 -34 37 -55 29 -25 -10 -35 -39 -35 -103 0 -48 4 -65 20 -81
11 -11 24 -20 29 -20 25 0 41 14 41 36 0 19 -5 24 -25 24 -21 0 -25 5 -25 30
l0 30 70 0 70 0 0 -67 c0 -66 -1 -69 -33 -90 -48 -33 -90 -38 -142 -19 -65 25
-85 63 -85 161 0 85 14 120 59 148 29 18 97 22 135 7z m317 -28 c33 -36 37
-76 13 -110 -13 -19 -13 -26 -3 -38 7 -9 16 -37 19 -62 4 -26 11 -55 15 -64 6
-16 1 -18 -38 -18 -49 0 -57 9 -57 64 0 39 -15 56 -52 56 -28 0 -28 -1 -28
-61 l0 -60 -37 3 -38 3 -3 150 c-1 82 0 155 3 163 4 11 24 13 91 11 82 -4 87
-5 115 -37z m295 7 c74 -70 72 -207 -4 -271 -60 -50 -132 -45 -188 13 -26 28
-29 38 -32 112 -3 73 -1 86 20 117 32 48 63 62 126 57 38 -3 59 -10 78 -28z
m267 20 c26 -12 57 -57 57 -83 0 -25 -77 -22 -85 3 -8 25 -31 34 -56 21 -33
-18 -21 -36 44 -64 92 -40 121 -88 87 -144 -20 -33 -71 -62 -109 -62 -42 0
-98 31 -116 64 -24 43 -15 66 26 66 22 0 32 -5 36 -19 7 -26 49 -44 74 -31 10
6 19 15 19 20 0 17 -30 38 -64 44 -51 10 -96 56 -96 98 0 39 22 76 54 88 30
12 101 12 129 -1z m172 1 c5 -8 9 -229 5 -311 0 -6 -16 -9 -37 -7 l-38 3 -3
150 c-1 82 0 155 2 162 6 16 62 17 71 3z m228 1 c61 -23 88 -101 50 -143 -15
-17 -15 -19 0 -36 10 -11 17 -35 17 -60 0 -22 5 -44 10 -47 6 -3 10 -13 10
-21 0 -10 -12 -14 -40 -14 -44 0 -60 18 -60 67 0 35 -16 53 -47 53 -20 0 -22
-5 -25 -57 l-3 -58 -40 0 -40 0 -3 150 c-1 82 0 155 2 162 6 16 131 18 169 4z
m-2446 -687 c26 -15 70 -42 96 -61 l49 -34 51 25 c85 41 133 50 272 49 97 -1
165 -8 270 -28 77 -15 158 -28 180 -28 22 0 103 13 180 28 105 20 173 27 270
28 138 1 187 -8 271 -49 l50 -25 75 50 c100 66 142 80 177 61 15 -9 35 -32 45
-51 17 -35 17 -38 -2 -81 -24 -56 -99 -123 -164 -146 -46 -15 -52 -22 -74 -72
-28 -62 -78 -120 -105 -120 -26 0 -22 16 10 39 29 20 81 105 71 116 -3 3 -29
1 -58 -5 -52 -10 -128 0 -161 20 -22 13 -5 23 18 11 23 -12 121 -15 171 -5 29
6 31 10 31 48 0 28 -8 50 -24 71 -22 28 -25 29 -43 14 -10 -9 -52 -36 -93 -60
-41 -24 -76 -47 -78 -51 -2 -5 -10 -8 -18 -8 -8 0 -33 -9 -54 -20 -86 -44
-216 -80 -287 -80 -62 0 -75 3 -112 30 -47 34 -61 58 -41 70 10 6 11 12 2 22
-6 7 -14 37 -18 66 -11 86 -23 59 -26 -63 -2 -63 0 -115 3 -115 4 0 12 7 19
15 9 11 16 13 24 5 7 -7 3 -17 -17 -33 l-28 -22 25 -23 c14 -12 26 -26 26 -32
0 -14 -27 -12 -33 3 -2 6 -8 9 -12 5 -4 -4 0 -15 9 -24 22 -21 14 -29 -13 -12
-18 11 -23 11 -30 -1 -5 -7 -14 -12 -21 -9 -9 3 -8 9 5 21 9 10 14 21 10 25
-4 4 -10 1 -12 -5 -6 -18 -33 -16 -33 2 0 8 12 22 26 31 l25 17 -27 22 c-17
13 -24 26 -20 34 6 9 12 8 27 -5 18 -16 18 -13 18 100 0 93 -3 116 -15 116
-10 0 -14 -13 -14 -46 0 -25 -5 -55 -11 -67 -9 -16 -9 -22 0 -25 22 -7 11 -31
-31 -64 -78 -61 -208 -49 -396 38 -29 13 -59 24 -67 24 -8 0 -15 4 -15 8 0 5
-12 15 -27 22 -16 8 -59 34 -98 58 l-69 44 -18 -22 c-26 -32 -42 -100 -28
-114 13 -13 186 -15 213 -2 10 5 17 4 17 -2 0 -25 -105 -44 -175 -31 -26 5
-51 7 -54 3 -10 -10 42 -95 71 -115 15 -11 28 -25 28 -30 0 -19 -37 -8 -64 20
-29 30 -76 115 -76 138 0 7 -8 13 -18 13 -29 0 -115 47 -151 82 -76 74 -87
145 -29 193 38 32 65 32 125 -1z m958 -14 c4 -6 -14 -9 -47 -8 l-53 1 45 7
c25 4 46 8 47 8 1 1 5 -2 8 -8z m-105 -20 c0 -5 -4 -10 -10 -10 -5 0 -10 5
-10 10 0 6 5 10 10 10 6 0 10 -4 10 -10z m150 0 c0 -5 -2 -10 -4 -10 -3 0 -8
5 -11 10 -3 6 -1 10 4 10 6 0 11 -4 11 -10z"/>
<path d="M2366 1675 c-10 -26 -7 -35 9 -35 17 0 19 18 6 38 -7 11 -10 10 -15
-3z"/>
<path d="M2628 1737 c-6 -32 1 -47 22 -47 30 0 52 28 40 51 -15 27 -57 25 -62
-4z"/>
<path d="M3231 1671 c-9 -16 -10 -26 -2 -34 13 -13 25 12 19 40 -3 16 -5 15
-17 -6z"/>
<path d="M3902 1728 c3 -38 30 -48 63 -24 28 20 9 50 -34 54 -31 3 -32 2 -29
-30z"/>
<path d="M4202 1747 c-18 -19 -22 -35 -22 -83 0 -65 4 -75 38 -93 25 -13 56
-2 66 25 3 8 6 41 6 73 0 47 -4 61 -23 79 -29 28 -38 28 -65 -1z"/>
<path d="M4910 1726 c0 -40 20 -48 56 -22 25 19 8 50 -30 54 -24 3 -26 0 -26
-32z"/>
<path d="M2435 1108 c-24 -22 -27 -29 -21 -61 9 -50 54 -99 126 -136 71 -37
80 -38 80 -8 0 12 11 40 25 62 13 22 25 45 25 50 0 13 -146 102 -181 110 -19
5 -33 0 -54 -17z"/>
<path d="M4415 1116 c-24 -11 -138 -79 -154 -92 -2 -2 8 -26 22 -53 15 -27 27
-57 27 -68 0 -11 3 -22 6 -26 12 -11 120 56 162 101 52 57 57 99 16 131 -31
24 -38 25 -79 7z"/>
<path d="M2830 1064 c-58 -15 -100 -33 -100 -43 0 -8 172 -111 185 -111 2 0 1
16 -2 35 -5 31 -1 39 35 75 22 22 49 40 60 40 12 0 24 5 27 10 9 15 -141 11
-205 -6z"/>
<path d="M3035 1055 c-56 -29 -86 -55 -105 -90 -12 -22 -11 -27 6 -40 40 -33
61 -35 126 -14 35 11 72 24 83 31 31 18 206 78 226 78 27 0 24 19 -3 24 -58
11 -238 36 -259 36 -13 0 -46 -11 -74 -25z"/>
<path d="M3680 1063 c-52 -8 -105 -17 -117 -19 -26 -5 -31 -24 -7 -24 20 0
151 -44 206 -69 71 -32 167 -61 186 -54 28 10 52 35 52 54 0 48 -122 130 -191
128 -19 -1 -77 -8 -129 -16z"/>
<path d="M3885 1070 c3 -5 17 -10 30 -10 51 0 130 -101 102 -129 -21 -21 1
-22 39 0 83 46 144 84 144 90 0 10 -43 28 -105 44 -67 17 -220 21 -210 5z"/>
<path d="M3315 978 c-33 -12 -98 -36 -144 -55 -46 -18 -101 -36 -122 -39 -22
-4 -37 -9 -34 -12 17 -18 92 -34 175 -38 108 -6 151 9 182 62 19 34 27 96 13
100 -5 1 -37 -7 -70 -18z"/>
<path d="M3537 993 c-8 -13 8 -80 26 -107 37 -55 159 -73 282 -40 69 17 93 34
51 34 -15 0 -71 17 -124 38 -53 22 -122 47 -152 57 -30 10 -60 20 -66 22 -7 3
-14 0 -17 -4z"/>
</g>
</svg>
