<?xml version="1.0" standalone="no"?>
<!DOCTYPE svg PUBLIC "-//W3C//DTD SVG 20010904//EN"
 "http://www.w3.org/TR/2001/REC-SVG-20010904/DTD/svg10.dtd">
<svg version="1.0" xmlns="http://www.w3.org/2000/svg"
 width="920.000000pt" height="483.000000pt" viewBox="0 0 920.000000 483.000000"
 preserveAspectRatio="xMidYMid meet">

<g transform="translate(0.000000,483.000000) scale(0.100000,-0.100000)"
fill="#000000" stroke="none">
<path d="M2227 4629 c-11 -6 -25 -26 -33 -45 -12 -29 -12 -39 0 -68 8 -18 20
-37 27 -42 8 -5 124 -11 259 -14 l245 -5 56 -265 c31 -146 91 -429 134 -630
42 -201 114 -543 161 -760 46 -217 133 -631 194 -920 131 -627 160 -759 166
-782 4 -13 -9 -24 -47 -44 -67 -34 -152 -114 -188 -178 -134 -237 -40 -529
206 -643 261 -120 554 25 628 312 28 109 12 220 -46 323 l-29 52 1010 0 1010
0 -29 -53 c-62 -108 -76 -253 -37 -364 50 -142 178 -260 321 -298 259 -67 502
92 562 369 15 67 14 78 -1 149 -39 176 -145 299 -312 363 -47 18 -109 19
-1455 22 l-1407 3 -5 27 c-4 15 -24 113 -46 217 -23 105 -41 198 -41 208 0 16
78 17 1498 17 1637 0 1526 -4 1550 57 12 30 20 66 133 588 39 182 99 463 134
625 35 162 86 400 114 528 59 268 61 299 27 339 l-24 28 -1950 3 -1949 2 -17
88 c-44 222 -156 731 -167 754 -6 14 -22 31 -36 37 -32 15 -591 15 -616 0z
m4581 -1081 c-3 -7 -31 -133 -63 -280 l-59 -268 -1732 0 -1733 0 -11 58 c-6
31 -32 152 -56 269 -24 116 -44 216 -44 222 0 8 515 11 1851 11 1477 0 1850
-3 1847 -12z m-2900 -870 c12 -73 51 -302 87 -508 36 -206 65 -383 65 -392 0
-17 -19 -18 -284 -18 -157 0 -287 3 -289 8 -3 4 -53 234 -111 512 -59 278
-109 511 -111 518 -3 9 63 12 308 12 l313 0 22 -132z m950 -390 l-3 -523 -294
-3 c-162 -1 -298 1 -302 5 -4 5 -35 168 -69 363 -69 404 -108 625 -115 658
l-5 22 395 0 395 0 -2 -522z m1012 508 c0 -8 -20 -128 -44 -268 -24 -139 -63
-363 -86 -498 -23 -135 -44 -251 -46 -258 -3 -10 -73 -12 -326 -10 l-323 3 -3
523 -2 522 415 0 c352 0 415 -2 415 -14z m775 2 c-4 -14 -19 -84 -141 -648
-40 -190 -76 -355 -79 -367 l-5 -23 -265 0 c-145 0 -266 3 -268 8 -3 4 15 120
39 257 47 266 134 771 134 780 0 3 133 5 295 5 231 0 293 -3 290 -12z m-2929
-1916 c49 -25 110 -91 132 -141 8 -20 15 -63 15 -96 -1 -143 -113 -254 -261
-258 -79 -3 -144 19 -196 65 -56 49 -81 110 -80 199 1 120 59 203 171 245 54
20 167 13 219 -14z m2764 -8 c159 -87 187 -289 57 -415 -93 -91 -264 -97 -375
-12 -112 85 -109 308 4 402 83 68 215 79 314 25z"/>
</g>
</svg>
