<?xml version="1.0" standalone="no"?>
<!DOCTYPE svg PUBLIC "-//W3C//DTD SVG 20010904//EN"
 "http://www.w3.org/TR/2001/REC-SVG-20010904/DTD/svg10.dtd">
<svg version="1.0" xmlns="http://www.w3.org/2000/svg"
 width="1055.000000pt" height="1497.000000pt" viewBox="0 0 1055.000000 1497.000000"
 preserveAspectRatio="xMidYMid meet">

<g transform="translate(0.000000,1497.000000) scale(0.100000,-0.100000)"
fill="#000000" stroke="none">
<path d="M1487 13483 c-4 -3 -7 -127 -7 -275 l0 -268 55 0 55 0 0 66 c0 70 8
91 51 141 l27 32 65 -117 65 -117 61 -3 c33 -2 61 1 61 6 0 5 -38 77 -85 160
-47 82 -85 155 -85 160 0 6 36 56 79 111 44 54 77 102 74 105 -10 10 -93 7
-112 -4 -10 -5 -56 -59 -101 -120 -46 -60 -87 -110 -92 -110 -4 0 -8 54 -8
120 l0 120 -48 0 c-27 0 -52 -3 -55 -7z"/>
<path d="M2165 13481 c-10 -18 -185 -515 -185 -528 0 -9 18 -13 54 -13 l55 0
17 55 18 55 96 0 96 0 18 -55 17 -55 55 0 c33 0 54 4 54 11 0 6 -25 84 -56
173 -31 88 -71 206 -90 262 l-35 101 -53 2 c-30 1 -57 -3 -61 -8z m88 -234
c15 -46 27 -89 27 -95 0 -8 -20 -12 -60 -12 -40 0 -60 4 -60 12 0 19 54 178
60 178 3 0 18 -37 33 -83z"/>
<path d="M2467 13484 c-4 -4 -7 -27 -7 -50 0 -50 12 -57 93 -53 l52 3 3 -222
2 -222 55 0 55 0 0 220 c0 121 3 221 8 221 17 3 70 7 110 8 l43 1 -3 48 -3 47
-201 3 c-110 1 -203 -1 -207 -4z"/>
<path d="M3068 13478 c-10 -7 -26 -40 -37 -73 -11 -33 -51 -149 -90 -259 -39
-109 -71 -201 -71 -203 0 -2 26 -3 58 -1 l57 3 17 50 16 50 98 0 97 0 17 -50
17 -50 56 -3 c31 -2 57 1 57 5 0 7 -122 361 -169 488 -18 49 -19 50 -62 53
-25 2 -51 -3 -61 -10z m86 -243 c14 -44 26 -83 26 -88 0 -8 -114 -10 -122 -1
-6 5 17 86 44 157 14 36 20 28 52 -68z"/>
<path d="M3450 13216 l0 -276 180 0 180 0 0 50 0 49 -122 3 -123 3 -5 220 -5
220 -52 3 -53 3 0 -275z"/>
<path d="M3985 13473 c-85 -44 -106 -87 -113 -224 -8 -167 24 -250 112 -296
70 -36 207 -13 258 44 46 50 67 188 48 308 -21 129 -83 185 -206 185 -43 -1
-80 -7 -99 -17z m166 -109 c21 -23 24 -36 27 -133 5 -132 -9 -175 -60 -189
-18 -5 -46 -5 -63 0 -56 15 -60 26 -60 174 0 131 1 136 24 155 35 29 101 26
132 -7z"/>
<path d="M4505 13474 c-78 -40 -103 -90 -112 -219 -13 -216 54 -317 211 -317
135 0 199 68 213 227 l6 75 -102 0 -101 0 0 -45 0 -45 40 0 c36 0 40 -2 40
-26 0 -62 -58 -101 -124 -83 -54 15 -66 47 -66 174 0 142 18 174 97 175 30 0
50 -7 71 -25 17 -14 35 -25 41 -25 16 0 81 33 81 41 0 17 -55 71 -91 89 -48
25 -160 27 -204 4z"/>
<path d="M2593 12391 c-83 -39 -121 -146 -109 -305 13 -164 74 -230 211 -230
160 -1 225 97 212 320 -6 106 -25 154 -79 197 -33 27 -47 31 -115 34 -62 3
-87 0 -120 -16z m152 -87 c32 -13 45 -59 45 -168 0 -58 -4 -116 -10 -131 -14
-38 -71 -59 -117 -44 -53 17 -65 57 -61 192 3 105 4 110 31 133 28 24 76 31
112 18z"/>
<path d="M1480 12130 l0 -270 55 0 54 0 3 98 3 97 90 5 c141 8 199 58 200 171
0 45 -6 64 -29 97 -42 60 -80 72 -241 72 l-135 0 0 -270z m269 156 c27 -25 28
-79 2 -105 -24 -24 -97 -36 -133 -22 -27 10 -28 14 -28 74 0 35 3 67 8 71 14
15 130 1 151 -18z"/>
<path d="M1982 12133 l3 -268 55 0 55 0 3 103 3 102 39 0 40 0 39 -84 c21 -46
42 -93 46 -105 6 -19 14 -21 71 -21 35 0 64 2 64 5 0 3 -23 52 -52 109 l-52
105 41 40 c32 30 43 50 48 84 9 59 -1 100 -33 139 -42 50 -75 58 -232 58
l-140 0 2 -267z m275 154 c23 -22 21 -87 -3 -104 -11 -8 -46 -13 -86 -13 l-68
0 0 71 0 71 70 -4 c48 -2 75 -9 87 -21z"/>
<path d="M3020 12130 l0 -270 124 0 c172 0 213 16 264 105 14 25 17 56 17 170
0 150 -7 175 -57 222 -38 36 -73 43 -214 43 l-134 0 0 -270z m271 141 c16 -20
19 -41 19 -137 0 -104 -2 -115 -23 -140 -21 -24 -31 -27 -88 -28 l-64 -1 -3
169 -2 168 71 -4 c60 -3 74 -8 90 -27z"/>
<path d="M3540 12213 c0 -106 5 -205 11 -228 36 -131 231 -176 339 -78 58 52
65 81 65 298 l0 190 -57 3 -57 3 -3 -200 c-3 -193 -4 -201 -26 -223 -33 -33
-94 -31 -129 5 l-28 27 -3 195 -4 195 -54 0 -54 0 0 -187z"/>
<path d="M4080 12130 l0 -270 55 0 55 0 0 71 c0 64 3 75 32 115 17 24 36 43
42 41 6 -2 29 -37 51 -78 83 -156 76 -149 145 -149 33 0 60 3 60 8 0 4 -40 77
-89 162 -74 128 -87 158 -78 172 7 9 42 55 80 102 37 48 67 88 67 91 0 3 -28
5 -62 5 l-63 -1 -55 -76 c-30 -41 -60 -81 -66 -87 -6 -6 -18 -23 -28 -38 -10
-16 -22 -28 -27 -28 -5 0 -9 52 -9 115 l0 115 -55 0 -55 0 0 -270z"/>
<path d="M4610 11915 l0 -55 55 0 55 0 0 55 0 55 -55 0 -55 0 0 -55z"/>
<path d="M1430 11270 l0 -50 1735 0 1735 0 0 50 0 50 -1735 0 -1735 0 0 -50z"/>
<path d="M2880 8080 c-283 -61 -564 -201 -740 -366 -91 -87 -111 -133 -111
-264 0 -55 3 -129 6 -166 l8 -66 30 6 c17 4 54 9 82 12 l52 6 7 -198 c8 -260
23 -445 42 -519 45 -183 172 -305 374 -361 92 -26 338 -26 430 -1 151 41 314
124 389 199 51 51 80 106 112 208 33 106 33 281 1 394 -27 95 -75 194 -118
245 -39 46 -57 79 -51 95 3 8 28 44 55 82 62 86 92 170 92 262 0 120 -40 222
-122 309 -59 61 -110 93 -196 122 -79 27 -222 27 -342 1z m-10 -545 c36 -18
70 -81 70 -127 -1 -76 -55 -147 -130 -169 -102 -31 -183 60 -157 176 22 105
131 165 217 120z m41 -678 c119 -80 39 -287 -111 -287 -53 0 -96 23 -116 62
-23 44 -15 134 15 176 49 69 148 92 212 49z"/>
<path d="M8592 7699 c-67 -33 -112 -108 -112 -184 0 -17 12 -56 28 -86 22 -45
36 -59 82 -82 64 -33 122 -33 186 0 117 60 139 230 42 320 -58 54 -153 68
-226 32z m168 -24 c80 -41 113 -139 77 -227 -36 -86 -158 -124 -242 -76 -59
34 -87 89 -82 161 8 127 133 199 247 142z"/>
<path d="M8588 7529 c-4 -121 -2 -129 23 -129 16 0 19 8 19 50 0 38 4 50 15
50 18 0 46 -27 71 -69 12 -20 26 -31 41 -31 30 0 29 8 -8 58 l-31 42 26 21
c29 23 33 55 12 84 -11 16 -29 20 -89 23 l-76 4 -3 -103z m130 34 c-3 -25 -7
-28 -45 -31 -42 -3 -43 -2 -43 27 0 30 1 31 46 31 44 0 45 -1 42 -27z"/>
<path d="M7515 7620 c-80 -9 -180 -43 -250 -86 -102 -61 -116 -93 -90 -213 8
-40 29 -166 45 -279 16 -113 31 -207 34 -209 2 -2 51 -11 107 -19 57 -9 115
-21 128 -27 86 -42 88 -192 3 -233 -28 -13 -54 -16 -128 -12 -84 5 -93 3 -97
-13 -11 -41 5 -314 19 -336 20 -31 147 -91 234 -109 243 -51 544 68 629 250
36 78 54 179 47 269 -9 113 -38 181 -105 247 -57 57 -94 78 -317 179 -60 28
-119 59 -132 70 -23 20 -23 21 -5 51 39 67 116 63 276 -15 50 -25 91 -44 93
-42 53 63 174 221 174 227 0 4 -21 33 -47 65 -132 157 -403 260 -618 235z"/>
<path d="M5601 7560 c-57 -14 -80 -31 -97 -77 -10 -24 -22 -42 -28 -39 -144
63 -187 79 -251 91 -95 19 -132 19 -220 0 -83 -17 -230 -87 -246 -117 -12 -23
-10 -47 20 -173 46 -200 49 -563 5 -823 -9 -52 -13 -104 -10 -116 3 -14 40
-42 116 -85 61 -35 113 -68 116 -73 13 -21 -56 -61 -239 -137 -66 -28 -74 -50
-52 -145 25 -115 84 -225 153 -286 171 -153 476 -200 713 -111 169 64 332 230
416 421 49 113 48 121 -44 171 -155 86 -243 211 -299 424 -34 130 -39 343 -11
474 33 151 110 307 225 452 34 43 62 81 62 85 0 10 -104 51 -158 63 -59 12
-121 13 -171 1z m-279 -591 c36 -16 61 -58 66 -110 12 -122 -110 -222 -211
-174 -51 24 -71 59 -71 126 -1 46 4 62 28 93 52 68 126 94 188 65z m108 -838
c0 -68 -16 -107 -55 -131 -62 -38 -147 -16 -192 50 -27 38 -30 88 -8 97 20 7
180 30 223 32 32 1 32 1 32 -48z"/>
<path d="M4255 7513 c-11 -2 -37 -11 -57 -20 -36 -15 -38 -19 -38 -61 0 -41
-2 -44 -22 -38 -161 45 -316 52 -416 17 -77 -26 -136 -62 -158 -96 -14 -21
-14 -27 -1 -52 128 -247 142 -292 142 -478 0 -119 -4 -151 -24 -215 -30 -96
-66 -168 -130 -255 -28 -38 -51 -75 -51 -81 0 -18 59 -64 115 -90 141 -65 324
-43 451 53 44 33 65 29 107 -22 58 -69 83 -78 225 -83 86 -3 131 -1 147 8 93
50 160 439 136 785 -14 192 -25 267 -62 445 -42 197 -35 190 -208 189 -75 -1
-145 -3 -156 -6z m-149 -607 c28 -28 34 -41 34 -77 0 -81 -66 -149 -143 -149
-78 0 -126 58 -114 137 12 73 71 123 146 123 36 0 49 -6 77 -34z"/>
<path d="M6051 7453 c-101 -80 -269 -367 -312 -532 -74 -291 46 -651 257 -771
220 -127 418 -118 617 28 27 19 52 31 56 26 5 -5 14 -26 21 -47 l12 -39 112 7
c250 15 307 22 324 39 14 14 16 43 14 239 -4 342 -20 473 -102 862 -28 135
-45 194 -57 203 -31 22 -201 -17 -336 -77 l-68 -31 7 -60 c3 -32 7 -142 8
-242 l1 -183 -32 -65 c-50 -102 -117 -133 -199 -94 -50 24 -100 88 -114 145
-18 75 -5 126 87 342 43 99 52 131 43 142 -15 18 -132 87 -194 114 -65 28
-103 27 -145 -6z"/>
<path d="M4732 1668 c3 -70 4 -71 31 -75 38 -5 57 12 57 52 0 38 -21 60 -50
52 -16 -4 -20 0 -20 19 0 13 -5 24 -10 24 -7 0 -10 -27 -8 -72z m71 -2 c11
-27 -4 -56 -29 -56 -21 0 -24 5 -24 35 0 30 3 35 24 35 13 0 26 -6 29 -14z"/>
<path d="M4161 1694 c-2 -21 31 -104 39 -99 5 3 11 19 15 35 4 17 10 30 15 30
5 0 11 -13 15 -30 4 -16 10 -32 15 -35 11 -7 44 79 37 97 -2 7 -10 -7 -17 -32
l-13 -45 -13 30 c-7 17 -13 37 -14 45 -1 22 -30 -18 -30 -42 0 -30 -16 -20
-33 20 -8 20 -15 32 -16 26z"/>
<path d="M4397 1693 c-2 -5 -7 -20 -11 -35 -8 -37 -23 -35 -31 2 -4 17 -10 30
-15 30 -4 0 -1 -22 8 -50 18 -57 30 -63 39 -20 8 44 20 45 33 5 6 -19 15 -35
19 -35 9 0 42 102 36 108 -3 3 -12 -12 -21 -33 -12 -29 -18 -35 -25 -24 -5 8
-9 22 -9 31 0 18 -16 33 -23 21z"/>
<path d="M4514 1675 c3 -16 10 -43 16 -60 l12 -30 18 40 18 40 11 -28 c6 -16
11 -33 11 -38 0 -5 4 -9 9 -9 11 0 45 99 37 107 -5 6 -26 -40 -26 -58 0 -22
-19 -6 -25 22 -9 38 -25 33 -40 -12 l-12 -34 -16 45 c-13 33 -16 37 -13 15z"/>
<path d="M4870 1689 c-12 -8 -12 -10 5 -8 36 3 45 -1 45 -16 0 -9 -9 -15 -25
-15 -29 0 -51 -32 -32 -48 7 -6 27 -10 45 -10 31 1 32 3 32 43 0 58 -30 82
-70 54z m50 -64 c0 -9 -7 -18 -16 -22 -18 -7 -39 11 -30 26 11 17 46 13 46 -4z"/>
<path d="M4992 1688 c-7 -7 -12 -27 -12 -45 0 -35 21 -54 51 -46 11 3 19 1 19
-5 0 -18 -26 -31 -50 -25 -16 4 -21 3 -16 -5 9 -16 49 -15 64 0 7 7 12 38 12
69 0 50 -3 57 -22 63 -31 8 -32 8 -46 -6z m53 -27 c9 -29 -5 -52 -29 -49 -37
5 -34 68 3 68 11 0 22 -8 26 -19z"/>
<path d="M5114 1650 l1 -55 38 -2 37 -1 0 49 c0 27 -4 49 -10 49 -5 0 -10 -18
-10 -39 0 -39 -16 -56 -38 -42 -6 3 -13 27 -15 51 -3 39 -4 37 -3 -10z"/>
<path d="M5241 1686 c-16 -19 -4 -44 22 -48 34 -5 28 -34 -6 -30 -18 2 -26 -1
-22 -7 8 -15 48 -14 63 1 20 20 13 39 -18 49 -44 16 -38 36 9 30 7 -2 10 2 6
8 -9 15 -40 14 -54 -3z"/>
<path d="M5350 1674 c-19 -49 7 -92 46 -77 12 4 15 1 12 -13 -3 -14 -11 -18
-31 -17 -15 1 -25 -2 -22 -8 9 -13 49 -11 63 3 7 7 12 38 12 69 0 50 -3 57
-22 63 -39 10 -48 7 -58 -20z m60 -30 c0 -31 -3 -35 -22 -32 -39 5 -37 68 2
68 16 0 20 -6 20 -36z"/>
<path d="M5474 1691 c-9 -9 -4 -101 6 -101 6 0 10 20 10 45 0 38 3 45 20 45
11 0 20 4 20 10 0 9 -46 10 -56 1z"/>
<path d="M5575 1684 c-10 -10 -15 -29 -13 -48 2 -23 10 -33 31 -41 24 -8 31
-6 43 10 19 25 18 60 -2 79 -20 20 -38 20 -59 0z m55 -38 c0 -33 -13 -47 -37
-39 -7 3 -13 20 -13 39 0 30 3 34 25 34 22 0 25 -4 25 -34z"/>
<path d="M5815 1690 c-8 -13 -3 -140 5 -140 6 0 10 11 10 24 0 19 4 23 20 19
11 -3 27 0 35 7 19 16 20 74 1 89 -13 11 -64 12 -71 1z m66 -22 c4 -46 -12
-71 -38 -61 -13 5 -18 54 -6 66 11 12 43 8 44 -5z"/>
<path d="M6014 1692 c-17 -11 -25 -41 -18 -68 7 -28 49 -43 67 -24 9 10 8 11
-8 6 -30 -8 -47 7 -43 40 2 23 9 30 31 32 15 2 25 8 22 13 -7 11 -36 12 -51 1z"/>
<path d="M6116 1684 c-32 -31 -12 -94 29 -94 41 0 61 63 29 94 -8 9 -22 16
-29 16 -7 0 -21 -7 -29 -16z m54 -38 c0 -33 -13 -47 -37 -39 -7 3 -13 20 -13
39 0 30 3 34 25 34 22 0 25 -4 25 -34z"/>
<path d="M6232 1640 l1 -55 6 45 c5 37 10 46 29 48 12 2 23 -1 23 -7 1 -6 3
-15 4 -21 1 -5 4 -22 5 -37 2 -21 5 -16 9 17 5 37 10 46 29 48 20 3 22 -1 22
-42 0 -25 5 -46 10 -46 15 0 12 87 -2 97 -7 4 -41 8 -75 8 l-63 0 2 -55z"/>
<path d="M5694 1645 l1 -50 38 -2 37 -1 0 49 c0 27 -4 49 -10 49 -5 0 -10 -18
-10 -40 0 -36 -3 -40 -24 -40 -22 0 -25 5 -29 43 -4 38 -4 37 -3 -8z"/>
<path d="M5940 1600 c0 -5 5 -10 10 -10 6 0 10 5 10 10 0 6 -4 10 -10 10 -5 0
-10 -4 -10 -10z"/>
</g>
</svg>
